v -0.40007237 -0.50408953 -0.5494282
v -0.2963667 -0.56412184 -0.5522216
v -0.42545104 -0.5694462 -0.42805132
v -0.25068337 -0.443138 -0.64979154
v -0.15927663 -0.55649585 -0.51741207
v 0.25589254 -0.5356042 -0.596229
v 0.2795205 -0.5922633 -0.46930704
v 0.15200977 -0.5128319 -0.5759955
v 0.36875752 -0.50784546 -0.57668185
v -0.42959076 -0.3760446 -0.509219
v -0.3537811 -0.37620652 -0.6234939
v -0.40007237 -0.50408953 -0.5494282
v -0.3231142 -0.28171042 -0.621963
v -0.3537811 -0.37620652 -0.6234939
v -0.42959076 -0.3760446 -0.509219
v -0.3231142 -0.28171042 -0.621963
v -0.42959076 -0.3760446 -0.509219
v -0.3848887 -0.23385593 -0.52384794
v -0.40243244 -0.16302794 -0.4653623
v -0.33290488 -0.12662938 -0.60160136
v -0.3848887 -0.23385593 -0.52384794
v -0.34242523 -0.014590235 -0.5368775
v -0.3848887 -0.23385593 -0.52384794
v -0.33290488 -0.12662938 -0.60160136
v -0.26253465 -0.032674477 -0.64807415
v -0.25811484 -0.18103872 -0.6865154
v -0.23254229 -0.29707152 -0.6838505
v -0.26253465 -0.032674477 -0.64807415
v -0.16622871 -0.18446428 -0.7386627
v -0.14537497 -0.32923886 -0.6966967
v -0.1443567 -0.051808078 -0.7392425
v -0.078577325 -0.41880643 -0.6080169
v -0.0656312 -0.26974076 -0.75196207
v -0.078577325 -0.41880643 -0.6080169
v -0.15927663 -0.55649585 -0.51741207
v -0.25068337 -0.443138 -0.64979154
v -0.0883867 -0.1274385 -0.77865267
v -0.0034874678 -0.076958135 -0.78961223
v -0.055290245 -0.22922185 -0.84180534
v -0.0656312 -0.26974076 -0.75196207
v -0.0883867 -0.1274385 -0.77865267
v -0.075862676 0.056973048 -0.71661246
v 0.016474176 -0.36124992 -0.67515504
v -0.078577325 -0.41880643 -0.6080169
v -0.14537497 -0.32923886 -0.6966967
v -0.055290245 -0.22922185 -0.84180534
v 0.016474176 -0.36124992 -0.67515504
v 0.008108351 -0.29241896 -0.8944535
v 0.06554292 -0.24668449 -0.7811215
v -0.055290245 -0.22922185 -0.84180534
v 0.008108351 -0.29241896 -0.8944535
v -0.0656312 -0.26974076 -0.75196207
v 0.06554292 -0.24668449 -0.7811215
v 0.06554292 -0.24668449 -0.7811215
v 0.07540132 -0.435427 -0.581237
v 0.047378376 -0.46806014 -0.46835846
v 0.06554292 -0.24668449 -0.7811215
v -0.0034874678 -0.076958135 -0.78961223
v 0.10453931 -0.13184857 -0.76880896
v 0.06554292 -0.24668449 -0.7811215
v 0.038555585 0.058795657 -0.72241116
v 0.10453931 -0.13184857 -0.76880896
v 0.14478146 -0.009588642 -0.72253025
v 0.15780547 -0.3318709 -0.6929203
v 0.016474176 -0.36124992 -0.67515504
v 0.15780547 -0.3318709 -0.6929203
v 0.20791441 -0.4181409 -0.6567672
v 0.07540132 -0.435427 -0.581237
v 0.15200977 -0.5128319 -0.5759955
v 0.19395189 -0.24168772 -0.7156069
v 0.25589254 -0.5356042 -0.596229
v 0.23186937 -0.092595704 -0.6948143
v 0.28393108 -0.17333153 -0.66158617
v 0.29837278 -0.2733274 -0.63652635
v 0.3496344 -0.3853858 -0.62283874
v 0.23186937 -0.092595704 -0.6948143
v 0.2883241 -0.021278776 -0.61574656
v 0.28393108 -0.17333153 -0.66158617
v 0.33995742 -0.13515784 -0.59181374
v 0.36875752 -0.50784546 -0.57668185
v 0.29837278 -0.2733274 -0.63652635
v 0.39843732 -0.261519 -0.49074164
v 0.3496344 -0.3853858 -0.62283874
v 0.37387693 -0.025920698 -0.4628538
v 0.38795426 -0.13618548 -0.49560207
v 0.42615148 -0.44788098 -0.52126485
v 0.36875752 -0.50784546 -0.57668185
v -0.2991861 0.10611096 -0.50998557
v -0.23952647 0.100534804 -0.5868648
v -0.23952647 0.100534804 -0.5868648
v -0.34242523 -0.014590235 -0.5368775
v -0.16541691 0.08339401 -0.6595258
v -0.121826604 0.1602068 -0.62187886
v -0.2180086 0.20277005 -0.49547493
v -0.121826604 0.1602068 -0.62187886
v -0.23952647 0.100534804 -0.5868648
v -0.06959382 0.23719722 -0.5592083
v -0.121826604 0.1602068 -0.62187886
v 0.07685153 0.19707847 -0.6013465
v 0.07685153 0.19707847 -0.6013465
v 0.026096936 0.25408 -0.5464016
v 0.14742993 0.24764574 -0.49392876
v 0.07685153 0.19707847 -0.6013465
v 0.1601075 0.078994825 -0.66275895
v 0.24813624 0.11849068 -0.55964386
v 0.1601075 0.078994825 -0.66275895
v 0.1601075 0.078994825 -0.66275895
v 0.14478146 -0.009588642 -0.72253025
v 0.24813624 0.11849068 -0.55964386
v -0.492854 -0.44573402 -0.214732
v -0.47343928 -0.54593873 -0.14637154
v -0.41871232 -0.50518936 -0.070926696
v -0.47088575 -0.5648137 -0.25756705
v -0.3617986 -0.5991112 -0.19522247
v -0.4801993 -0.4647528 -0.3330355
v -0.42545104 -0.5694462 -0.42805132
v -0.3617986 -0.5991112 -0.19522247
v -0.35247952 -0.59921753 -0.35704637
v -0.47088575 -0.5648137 -0.25756705
v -0.42545104 -0.5694462 -0.42805132
v -0.3617986 -0.5991112 -0.19522247
v -0.3617986 -0.5991112 -0.19522247
v -0.31027555 -0.50307673 -0.083413474
v -0.41871232 -0.50518936 -0.070926696
v -0.2963667 -0.56412184 -0.5522216
v -0.28489932 -0.59562564 -0.4360652
v -0.3617986 -0.5991112 -0.19522247
v -0.2524171 -0.5612063 -0.1637479
v -0.24729434 -0.59956694 -0.3186071
v -0.2524171 -0.5612063 -0.1637479
v -0.15927663 -0.55649585 -0.51741207
v -0.15890287 -0.56712997 -0.28858623
v -0.15890287 -0.56712997 -0.28858623
v -0.1545621 -0.48470315 -0.17275867
v -0.107608095 -0.53022236 -0.37165278
v -0.07573071 -0.4813355 -0.45188522
v -0.107608095 -0.53022236 -0.37165278
v 0.047378376 -0.46806014 -0.46835846
v 0.15200977 -0.5128319 -0.5759955
v 0.15091959 -0.5842105 -0.45853323
v 0.09978987 -0.49064788 -0.25074238
v 0.15142849 -0.5790324 -0.35666725
v 0.19517633 -0.57473683 -0.24212173
v 0.15091959 -0.5842105 -0.45853323
v 0.15142849 -0.5790324 -0.35666725
v 0.27630782 -0.60077524 -0.31520942
v 0.19517633 -0.57473683 -0.24212173
v 0.2872367 -0.54120237 -0.11361845
v 0.17500728 -0.46866134 -0.102533296
v 0.33538476 -0.5980024 -0.38837412
v 0.35472584 -0.60200346 -0.24948671
v 0.2872367 -0.54120237 -0.11361845
v 0.41922426 -0.58477056 -0.14601246
v 0.37823927 -0.5030495 -0.056362763
v 0.4295673 -0.56668764 -0.4061931
v 0.4295673 -0.56668764 -0.4061931
v 0.4744721 -0.54789245 -0.25223678
v 0.37823927 -0.5030495 -0.056362763
v 0.41922426 -0.58477056 -0.14601246
v 0.46978742 -0.49993327 -0.12558815
v 0.4744721 -0.54789245 -0.25223678
v 0.46978742 -0.49993327 -0.12558815
v 0.41922426 -0.58477056 -0.14601246
v -0.4766738 -0.37435034 -0.27700585
v -0.4443841 -0.33224994 -0.16408086
v -0.4611014 -0.4524634 -0.4362232
v -0.451703 -0.34758198 -0.38441256
v -0.4318354 -0.29042262 -0.3048932
v -0.37237382 -0.3580577 -0.052431457
v -0.41876045 -0.25829464 -0.40629146
v -0.43715468 -0.15586185 -0.18093506
v -0.4202131 -0.029058347 -0.2276962
v -0.42546523 -0.15348655 -0.33385938
v -0.4328084 -0.04918135 -0.082584634
v -0.41797018 -0.2206141 -0.033578787
v -0.4443841 -0.33224994 -0.16408086
v -0.4766738 -0.37435034 -0.27700585
v -0.42923546 -0.1299151 0.058116198
v -0.42720053 -0.031582385 0.025741883
v -0.4110672 0.041751996 -0.027626185
v -0.37237382 -0.3580577 -0.052431457
v -0.39042562 -0.056520633 -0.4482475
v -0.38412797 0.047501326 -0.33450636
v -0.35274845 0.053064913 -0.45558167
v -0.37237382 -0.3580577 -0.052431457
v -0.22799881 -0.45458892 -0.09163149
v -0.22799881 -0.45458892 -0.09163149
v -0.24419019 -0.4017403 0.040030368
v -0.37237382 -0.3580577 -0.052431457
v -0.10401304 -0.45913422 -0.025416827
v -0.1545621 -0.48470315 -0.17275867
v -0.05131475 -0.4794771 -0.11475966
v -0.15890287 -0.56712997 -0.28858623
v -0.036646593 -0.47963864 -0.24574319
v -0.107608095 -0.53022236 -0.37165278
v -0.026277129 -0.4649551 -0.3557734
v -0.07573071 -0.4813355 -0.45188522
v 0.041353993 -0.4819162 -0.17042786
v 0.0647995 -0.45610023 -0.001411343
v 0.065431185 -0.47751552 -0.3518513
v 0.09978987 -0.49064788 -0.25074238
v 0.065431185 -0.47751552 -0.3518513
v 0.07540132 -0.435427 -0.581237
v 0.17500728 -0.46866134 -0.102533296
v 0.15652001 -0.43157795 0.042744696
v 0.264818 -0.4505052 -0.07927266
v 0.25904265 -0.4327973 0.0743659
v 0.264818 -0.4505052 -0.07927266
v 0.3454171 -0.3507952 -0.030338513
v 0.37823927 -0.5030495 -0.056362763
v 0.264818 -0.4505052 -0.07927266
v 0.264818 -0.4505052 -0.07927266
v 0.3454171 -0.3507952 -0.030338513
v 0.4226572 -0.35319677 -0.09772675
v 0.3454171 -0.3507952 -0.030338513
v 0.4226572 -0.35319677 -0.09772675
v 0.40638554 -0.2357338 3.588572E-4
v 0.3454171 -0.3507952 -0.030338513
v 0.3681448 0.04699097 -0.40750504
v 0.39696622 0.010991506 -0.31930178
v 0.41957653 -0.17308892 -0.37394923
v 0.39563322 0.054355346 -0.23156871
v 0.42249498 -0.018159794 -0.17128965
v 0.44110402 -0.3218692 -0.3629566
v 0.43089116 -0.3069036 -0.2127092
v 0.43352512 -0.19938177 -0.18605775
v 0.42676198 -0.23719017 -0.3067687
v 0.4294445 -0.10157786 -0.24565135
v 0.4277056 -0.13109073 0.03540472
v 0.43495187 -0.09779972 -0.106370345
v 0.41823244 0.004885859 0.012404328
v 0.395087 0.08106863 -0.105437726
v 0.4226572 -0.35319677 -0.09772675
v 0.43089116 -0.3069036 -0.2127092
v 0.4226572 -0.35319677 -0.09772675
v 0.44489515 -0.3618539 -0.45284593
v 0.48151073 -0.40902466 -0.2687841
v 0.46016923 -0.47433716 -0.4402392
v 0.48151073 -0.40902466 -0.2687841
v 0.4226572 -0.35319677 -0.09772675
v -0.4113844 0.045836613 -0.11959801
v -0.37029034 0.11638023 -0.2465817
v -0.36260515 0.14997073 -0.1383476
v -0.36034894 0.15337932 -0.029106474
v -0.31152952 0.20615555 -0.26483727
v -0.28852952 0.24343541 -0.069831714
v -0.3140941 0.15878572 -0.4001755
v -0.23194602 0.24574475 -0.3908779
v -0.23194602 0.24574475 -0.3908779
v -0.31152952 0.20615555 -0.26483727
v -0.22562751 0.28218052 -0.26539844
v -0.3140941 0.15878572 -0.4001755
v -0.2991861 0.10611096 -0.50998557
v -0.3140941 0.15878572 -0.4001755
v -0.23952647 0.100534804 -0.5868648
v -0.2991861 0.10611096 -0.50998557
v -0.31152952 0.20615555 -0.26483727
v -0.28852952 0.24343541 -0.069831714
v -0.18704632 0.31002277 -0.044522166
v -0.18358974 0.31074816 0.07541843
v -0.14531384 0.33357823 -0.14462657
v -0.1305832 0.30040693 -0.39483505
v -0.13017291 0.33095354 -0.26778746
v -0.04955369 0.350766 -0.028560285
v -0.03401856 0.35911903 -0.19227025
v -0.018824585 0.2994249 -0.46150708
v -0.053777486 0.33410645 -0.3478017
v 0.019953672 0.3526305 -0.2667971
v 0.051214788 0.3260911 -0.37759984
v 0.08094482 0.35251185 -0.09373385
v 0.14125514 0.33237794 -0.20671517
v 0.13061523 0.3183669 -0.32583478
v 0.093128346 0.33335382 0.053849142
v 0.17343082 0.32206053 -0.10160932
v 0.2129884 0.28515163 -8.3787926E-4
v 0.24219139 0.27416855 -0.22321182
v 0.23192705 0.23761202 -0.40601784
v 0.29631507 0.1387415 -0.46631336
v 0.2755704 0.2553401 -0.08262308
v 0.32993376 0.15602596 -0.33417386
v 0.23192705 0.23761202 -0.40601784
v 0.32993376 0.15602596 -0.33417386
v 0.29631507 0.1387415 -0.46631336
v 0.34719896 0.16633041 -0.021534782
v 0.3393082 0.17676827 -0.19866873
v 0.24219139 0.27416855 -0.22321182
v 0.3393082 0.17676827 -0.19866873
v 0.2755704 0.2553401 -0.08262308
v 0.34719896 0.16633041 -0.021534782
v 0.38195473 0.09491965 0.031729326
v -0.4015893 -0.54799896 0.24590087
v -0.3175025 -0.58539975 0.39573655
v -0.3819506 -0.44061926 0.33109197
v -0.3668491 -0.438186 0.12499517
v -0.30140957 -0.575163 0.15849319
v -0.4015893 -0.54799896 0.24590087
v -0.26470774 -0.60428363 0.31366736
v -0.3175025 -0.58539975 0.39573655
v -0.4015893 -0.54799896 0.24590087
v -0.30140957 -0.575163 0.15849319
v -0.15105489 -0.5862745 0.2434056
v -0.21697953 -0.55548525 0.43048233
v -0.14103264 -0.5743064 0.36848587
v -0.17719503 -0.5477262 0.14441681
v -0.1653156 -0.46253377 0.3872397
v -0.14103264 -0.5743064 0.36848587
v -0.15105489 -0.5862745 0.2434056
v -0.1031942 -0.48205996 0.24670033
v 0.10228514 -0.45092934 0.17056093
v 0.17514575 -0.5767665 0.15421799
v 0.11065039 -0.54437256 0.2800163
v 0.21442194 -0.6012635 0.23849384
v 0.11065039 -0.54437256 0.2800163
v 0.17514575 -0.5767665 0.15421799
v 0.15744627 -0.5612317 0.37459928
v 0.25411588 -0.5923624 0.40422755
v 0.17514575 -0.5767665 0.15421799
v 0.25904265 -0.4327973 0.0743659
v 0.33246315 -0.5451871 0.13752514
v 0.33246315 -0.5451871 0.13752514
v 0.31243822 -0.60463107 0.3324705
v 0.39739916 -0.5535154 0.2799002
v 0.29805383 -0.49436972 0.4072713
v -0.42263848 -0.053635463 0.1261541
v -0.41821563 -0.14904504 0.18723956
v -0.41393095 -0.2707827 0.15174255
v -0.41030437 -0.39619148 0.24012959
v -0.3668491 -0.438186 0.12499517
v -0.38619953 -0.019600024 0.21118543
v -0.3855923 0.06796682 0.09123132
v -0.37512726 -0.2711267 0.30023247
v -0.37473625 -0.1438137 0.28314522
v -0.34331235 -0.3419091 0.06779262
v -0.2911404 -0.46641976 0.40662783
v -0.41393095 -0.2707827 0.15174255
v -0.34331235 -0.3419091 0.06779262
v -0.3668491 -0.438186 0.12499517
v -0.34138325 -0.03643867 0.33679658
v -0.30468932 -0.31667 0.3740711
v -0.30456284 -0.1540466 0.36254606
v -0.30468932 -0.31667 0.3740711
v -0.24419019 -0.4017403 0.040030368
v -0.24419019 -0.4017403 0.040030368
v -0.25145566 -0.05795092 0.41746965
v -0.2971458 0.067016274 0.46527284
v -0.21697953 -0.55548525 0.43048233
v -0.2911404 -0.46641976 0.40662783
v -0.3175025 -0.58539975 0.39573655
v -0.30468932 -0.31667 0.3740711
v -0.19470146 -0.35936746 0.39471257
v -0.21823975 -0.47505048 0.10521307
v -0.30456284 -0.1540466 0.36254606
v -0.16319907 -0.13197133 0.438078
v -0.25145566 -0.05795092 0.41746965
v -0.17719503 -0.5477262 0.14441681
v -0.1653156 -0.46253377 0.3872397
v -0.17217472 -0.22262731 0.41071063
v -0.24419019 -0.4017403 0.040030368
v -0.12995449 -0.4371089 0.09877357
v -0.14506549 -0.030134445 0.53499085
v -0.22306211 0.024283059 0.5079902
v -0.16319907 -0.13197133 0.438078
v -0.14103264 -0.5743064 0.36848587
v -0.12995449 -0.4371089 0.09877357
v -0.047021236 -0.25967225 0.38362318
v -0.17719503 -0.5477262 0.14441681
v -0.12995449 -0.4371089 0.09877357
v -0.1653156 -0.46253377 0.3872397
v -0.08376525 -0.36203793 0.31773573
v -0.16319907 -0.13197133 0.438078
v -0.077210486 -0.11178822 0.555597
v -0.08376525 -0.36203793 0.31773573
v -0.026501462 -0.39756048 0.18578437
v -0.009817727 -0.43205604 0.07101938
v -0.04286481 -0.21800783 0.52745306
v -0.077210486 -0.11178822 0.555597
v -0.16319907 -0.13197133 0.438078
v -0.04286481 -0.21800783 0.52745306
v -0.026501462 -0.39756048 0.18578437
v 0.03665717 -0.35255605 0.28931051
v -0.047021236 -0.25967225 0.38362318
v -0.08376525 -0.36203793 0.31773573
v -0.08376525 -0.36203793 0.31773573
v 0.05328867 -0.20430237 0.42548984
v 0.10228514 -0.45092934 0.17056093
v 0.03665717 -0.35255605 0.28931051
v 0.070834994 -0.15391311 0.5402025
v -0.04286481 -0.21800783 0.52745306
v 0.05328867 -0.20430237 0.42548984
v 0.1419402 -0.032000113 0.5361502
v 0.070834994 -0.15391311 0.5402025
v 0.05328867 -0.20430237 0.42548984
v 0.13246827 -0.26503056 0.39852822
v 0.1168129 -0.4085334 0.338614
v 0.03665717 -0.35255605 0.28931051
v 0.17828012 -0.13900182 0.430323
v 0.15744627 -0.5612317 0.37459928
v 0.1419402 -0.032000113 0.5361502
v 0.03665717 -0.35255605 0.28931051
v 0.13246827 -0.26503056 0.39852822
v 0.10228514 -0.45092934 0.17056093
v 0.21710192 -0.21978681 0.40494013
v 0.15652001 -0.43157795 0.042744696
v 0.15744627 -0.5612317 0.37459928
v 0.23836467 -0.4071976 0.40133867
v 0.1168129 -0.4085334 0.338614
v 0.23433554 -0.3140397 0.39956862
v 0.1419402 -0.032000113 0.5361502
v 0.28932104 -0.0013634376 0.42788953
v 0.29805383 -0.49436972 0.4072713
v 0.25411588 -0.5923624 0.40422755
v 0.2946668 -0.16633558 0.37025195
v 0.32375753 -0.295837 0.3584944
v 0.3289945 -0.046255663 0.34409842
v 0.3829849 -0.4180201 0.3160107
v 0.3742294 -0.21754563 0.2905983
v 0.39816988 -0.36082816 0.1402531
v 0.3454171 -0.3507952 -0.030338513
v 0.3289945 -0.046255663 0.34409842
v 0.3742294 -0.21754563 0.2905983
v 0.3880477 -0.057960454 0.22548316
v 0.41937798 0.03893236 0.29738817
v 0.41937798 0.03893236 0.29738817
v 0.28932104 -0.0013634376 0.42788953
v 0.3289945 -0.046255663 0.34409842
v 0.29805383 -0.49436972 0.4072713
v 0.39739916 -0.5535154 0.2799002
v 0.3829849 -0.4180201 0.3160107
v 0.41908196 -0.23381716 0.12532362
v 0.39816988 -0.36082816 0.1402531
v 0.4115404 -0.2686711 0.2157833
v 0.42036635 -0.12756416 0.16772857
v 0.4124149 -0.44611686 0.21784723
v 0.33246315 -0.5451871 0.13752514
v 0.42441112 -0.057706065 0.10057913
v 0.38311452 0.054501757 0.12393059
v -0.4778495 0.23131002 0.15686911
v -0.4412726 0.22774012 0.28131044
v -0.49018252 0.34033924 0.19477902
v -0.46927184 0.13179682 0.2503984
v -0.49018252 0.34033924 0.19477902
v -0.42897183 0.31727153 0.14548811
v -0.4778495 0.23131002 0.15686911
v -0.37779683 0.5141901 0.22907786
v -0.39335778 0.3940928 0.3091094
v -0.37779683 0.5141901 0.22907786
v -0.4341889 0.040230468 0.29585588
v -0.46927184 0.13179682 0.2503984
v -0.3818733 0.08082961 0.19958606
v -0.36337942 0.16683896 0.13888018
v -0.4341889 0.040230468 0.29585588
v -0.4153946 0.13535665 0.34290567
v -0.34138325 -0.03643867 0.33679658
v -0.38559696 0.024849197 0.39016575
v -0.4341889 0.040230468 0.29585588
v -0.32295153 0.3143026 0.19667575
v -0.36893332 0.28038526 0.37411076
v -0.38559696 0.024849197 0.39016575
v -0.3466599 0.15342498 0.4277057
v -0.34138325 -0.03643867 0.33679658
v -0.32295153 0.3143026 0.19667575
v -0.42897183 0.31727153 0.14548811
v -0.37779683 0.5141901 0.22907786
v -0.30620077 0.5173012 0.35948074
v -0.3818733 0.08082961 0.19958606
v -0.2971458 0.067016274 0.46527284
v -0.36337942 0.16683896 0.13888018
v -0.31371966 0.26586372 0.5009959
v -0.31928396 0.3537041 0.45101708
v -0.2971458 0.067016274 0.46527284
v -0.27079347 0.48799568 0.45657194
v -0.28890538 0.18136391 0.5508555
v -0.29180324 0.48277497 0.27725118
v -0.32295153 0.3143026 0.19667575
v -0.2763913 0.24522495 0.07397886
v -0.36337942 0.16683896 0.13888018
v -0.2763913 0.24522495 0.07397886
v -0.28852952 0.24343541 -0.069831714
v -0.2971458 0.067016274 0.46527284
v -0.15959263 0.42869234 0.66444325
v -0.2763913 0.24522495 0.07397886
v -0.20641689 0.4244509 0.19047971
v -0.29180324 0.48277497 0.27725118
v -0.20641689 0.4244509 0.19047971
v -0.32295153 0.3143026 0.19667575
v -0.16131146 0.5229522 0.28086346
v -0.30620077 0.5173012 0.35948074
v -0.18358974 0.31074816 0.07541843
v -0.13383473 0.48062336 0.19382456
v -0.20641689 0.4244509 0.19047971
v -0.13383473 0.48062336 0.19382456
v -0.077881426 0.3653664 0.08871874
v -0.077881426 0.3653664 0.08871874
v -0.040195435 0.47300255 0.16186412
v -0.13383473 0.48062336 0.19382456
v -0.040195435 0.47300255 0.16186412
v 0.07950723 0.43400398 0.14007728
v 0.093128346 0.33335382 0.053849142
v 0.0070083756 0.5509976 0.2584138
v 0.07950723 0.43400398 0.14007728
v 0.17516194 0.47444445 0.21708342
v 0.093128346 0.33335382 0.053849142
v 0.20832714 0.3534082 0.14144053
v 0.20832714 0.3534082 0.14144053
v 0.07950723 0.43400398 0.14007728
v 0.20832714 0.3534082 0.14144053
v 0.25325274 0.5242123 0.39364296
v 0.28105164 0.50197184 0.29536527
v 0.28932104 -0.0013634376 0.42788953
v 0.26890704 0.095500894 0.51601064
v 0.1419402 -0.032000113 0.5361502
v 0.27172494 0.23530057 0.0899525
v 0.28105164 0.50197184 0.29536527
v 0.31981385 0.4245463 0.22340208
v 0.17516194 0.47444445 0.21708342
v 0.30865955 0.2716215 0.18101129
v 0.20832714 0.3534082 0.14144053
v 0.17516194 0.47444445 0.21708342
v 0.27172494 0.23530057 0.0899525
v 0.330814 0.16494644 0.13830534
v 0.3252229 0.34819126 0.4327911
v 0.27467498 0.4598507 0.48364776
v 0.27608398 0.397752 0.5611736
v 0.3429877 0.45289686 0.36929876
v 0.25325274 0.5242123 0.39364296
v 0.34304416 0.20109408 0.42607224
v 0.30477715 0.23119324 0.52334267
v 0.26890704 0.095500894 0.51601064
v 0.27172494 0.23530057 0.0899525
v 0.31981385 0.4245463 0.22340208
v 0.28105164 0.50197184 0.29536527
v 0.417408 0.5213282 0.23690286
v 0.26890704 0.095500894 0.51601064
v 0.28932104 -0.0013634376 0.42788953
v 0.34304416 0.20109408 0.42607224
v 0.4018256 0.33914858 0.16619605
v 0.30865955 0.2716215 0.18101129
v 0.38750404 0.106703594 0.38501325
v 0.30865955 0.2716215 0.18101129
v 0.45838776 0.2082742 0.17978433
v 0.330814 0.16494644 0.13830534
v 0.37995172 0.28782982 0.35334602
v 0.40622973 0.0877672 0.20566384
v 0.416328 0.18070811 0.32631212
v 0.417408 0.5213282 0.23690286
v 0.33931306 0.57630813 0.341452
v 0.40974668 0.38391265 0.288673
v 0.452861 0.4160771 0.17205453
v 0.34304416 0.20109408 0.42607224
v 0.38750404 0.106703594 0.38501325
v 0.3429877 0.45289686 0.36929876
v 0.40974668 0.38391265 0.288673
v 0.417408 0.5213282 0.23690286
v 0.41937798 0.03893236 0.29738817
v 0.38750404 0.106703594 0.38501325
v 0.45819956 0.28886616 0.24457067
v 0.40622973 0.0877672 0.20566384
v 0.41937798 0.03893236 0.29738817
v 0.45838776 0.2082742 0.17978433
v 0.41937798 0.03893236 0.29738817
v 0.452861 0.4160771 0.17205453
v 0.45819956 0.28886616 0.24457067
v 0.5021384 0.2986779 0.14435385
v 0.45838776 0.2082742 0.17978433
v 0.5021384 0.2986779 0.14435385
v 0.5021384 0.2986779 0.14435385
v -0.30620077 0.5173012 0.35948074
v -0.27079347 0.48799568 0.45657194
v -0.30620077 0.5173012 0.35948074
v -0.30620077 0.5173012 0.35948074
v -0.15501738 0.5574626 0.37924576
v -0.27079347 0.48799568 0.45657194
v -0.06285975 0.5919077 0.46715158
v -0.16780645 0.5280297 0.5491149
v -0.035912693 0.58666366 0.35899782
v 0.074646406 0.5902058 0.4366653
v 0.012196943 0.59180105 0.51951426
v 0.12386724 0.5520592 0.31450796
v 0.08628816 0.55785006 0.57017875
v 0.19158559 0.5316515 0.4920578
v 0.27467498 0.4598507 0.48364776
v 0.25325274 0.5242123 0.39364296
v 0.33931306 0.57630813 0.341452
v 0.28105164 0.50197184 0.29536527
v 0.33931306 0.57630813 0.341452
v -0.059863694 -0.07327787 0.8163893
v -0.11137713 -0.06913831 0.894107
v -0.11824911 0.047992855 0.90190876
v -0.078180656 -0.22143859 0.8224585
v -0.026807886 -0.15842625 0.973701
v -0.051918358 -0.2527678 0.9320365
v -0.059863694 -0.07327787 0.8163893
v -0.078180656 -0.22143859 0.8224585
v -0.11137713 -0.06913831 0.894107
v -0.04767576 -0.22734402 0.6841572
v -0.042412125 -0.31405067 0.6005809
v -0.0832717 -0.3126049 0.7389293
v -0.05184368 -0.34652695 0.8349264
v -0.07814665 -0.024003029 0.9709499
v -0.04286481 -0.21800783 0.52745306
v -0.077210486 -0.11178822 0.555597
v 0.0048309243 -0.06316515 0.6063211
v -0.14506549 -0.030134445 0.53499085
v -0.077210486 -0.11178822 0.555597
v -0.037221003 0.005340851 0.6854708
v -0.059863694 -0.07327787 0.8163893
v -0.13495493 0.05096356 0.7515086
v 0.04896836 -0.22413652 0.65530384
v -0.07814665 -0.024003029 0.9709499
v -0.026807886 -0.15842625 0.973701
v 0.0313099 -0.017848384 0.98674965
v -0.037221003 0.005340851 0.6854708
v 0.054570507 -0.03411726 0.7877747
v -0.078180656 -0.22143859 0.8224585
v 0.046575174 -0.21037352 0.79945016
v 0.040735085 -0.34428185 0.6571119
v -0.0832717 -0.3126049 0.7389293
v -0.042412125 -0.31405067 0.6005809
v 0.07002345 -0.34236234 0.760329
v -0.05184368 -0.34652695 0.8349264
v 0.0048309243 -0.06316515 0.6063211
v -0.077210486 -0.11178822 0.555597
v 0.04896836 -0.22413652 0.65530384
v 0.046575174 -0.21037352 0.79945016
v -0.04767576 -0.22734402 0.6841572
v -0.078180656 -0.22143859 0.8224585
v 0.0822816 -0.21511504 0.91854405
v -0.051918358 -0.2527678 0.9320365
v 0.04896836 -0.22413652 0.65530384
v -0.042412125 -0.31405067 0.6005809
v 0.04896836 -0.22413652 0.65530384
v 0.058405157 -0.32762823 0.8747225
v -0.051918358 -0.2527678 0.9320365
v 0.078045584 -0.0989418 0.9643901
v 0.04896836 -0.22413652 0.65530384
v 0.092978776 -0.12408945 0.86734855
v 0.1419402 -0.032000113 0.5361502
v 0.10765733 0.002443584 0.64263195
v 0.058405157 -0.32762823 0.8747225
v 0.070834994 -0.15391311 0.5402025
v 0.1419402 -0.032000113 0.5361502
v 0.04896836 -0.22413652 0.65530384
v 0.046575174 -0.21037352 0.79945016
v 0.040735085 -0.34428185 0.6571119
v 0.07002345 -0.34236234 0.760329
v 0.04896836 -0.22413652 0.65530384
v 0.058405157 -0.32762823 0.8747225
v 0.0822816 -0.21511504 0.91854405
v 0.092978776 -0.12408945 0.86734855
v 0.09785749 0.048860908 0.94680446
v 0.078045584 -0.0989418 0.9643901
v 0.11728369 -0.036140017 0.8891349
v 0.054570507 -0.03411726 0.7877747
v 0.12815046 0.04067154 0.8118662
v 0.09785749 0.048860908 0.94680446
v -0.25214243 0.11422083 0.6250187
v -0.25326818 0.27887785 0.6197605
v -0.23694459 0.010580346 0.7203738
v -0.21194407 0.11230945 0.7133585
v -0.21176687 0.22674963 0.6854919
v -0.15959263 0.42869234 0.66444325
v -0.16780645 0.5280297 0.5491149
v -0.27079347 0.48799568 0.45657194
v -0.25214243 0.11422083 0.6250187
v -0.22306211 0.024283059 0.5079902
v -0.13495493 0.05096356 0.7515086
v -0.21194407 0.11230945 0.7133585
v -0.23694459 0.010580346 0.7203738
v -0.16012809 0.19643196 0.79350466
v -0.14713103 0.31391516 0.75892806
v -0.23694459 0.010580346 0.7203738
v -0.13086966 0.007844053 0.647348
v -0.13495493 0.05096356 0.7515086
v -0.15959263 0.42869234 0.66444325
v -0.23694459 0.010580346 0.7203738
v -0.107131466 0.16161707 0.8977845
v -0.107613795 0.26161492 0.8603381
v -0.15959263 0.42869234 0.66444325
v -0.14713103 0.31391516 0.75892806
v 0.010178563 0.40318066 0.776235
v -0.107613795 0.26161492 0.8603381
v -0.011040463 0.33462876 0.841433
v -0.14713103 0.31391516 0.75892806
v 0.010178563 0.40318066 0.776235
v -0.037128963 0.48985422 0.68414116
v -0.15959263 0.42869234 0.66444325
v 0.018702727 0.2415233 0.9078064
v -0.107613795 0.26161492 0.8603381
v -0.107131466 0.16161707 0.8977845
v -0.011040463 0.33462876 0.841433
v -0.11824911 0.047992855 0.90190876
v 0.020869253 0.11474285 0.9641975
v 0.010178563 0.40318066 0.776235
v 0.09692971 0.49265403 0.65849566
v 0.10906367 0.36470553 0.7724664
v 0.010178563 0.40318066 0.776235
v 0.054570507 -0.03411726 0.7877747
v 0.1252211 0.14870378 0.8887441
v 0.14627713 0.25317535 0.7987572
v 0.16941223 0.41445482 0.67015284
v 0.10906367 0.36470553 0.7724664
v 0.12815046 0.04067154 0.8118662
v 0.1252211 0.14870378 0.8887441
v 0.1419402 -0.032000113 0.5361502
v 0.16144131 0.13243523 0.7848592
v 0.14627713 0.25317535 0.7987572
v 0.17701188 0.50226045 0.5817691
v 0.10906367 0.36470553 0.7724664
v 0.19753045 0.3047546 0.68830144
v 0.16941223 0.41445482 0.67015284
v 0.22559184 -0.0055241203 0.6883411
v 0.22559184 -0.0055241203 0.6883411
v 0.12815046 0.04067154 0.8118662
v 0.10765733 0.002443584 0.64263195
v 0.22559184 -0.0055241203 0.6883411
v 0.23088977 0.14107144 0.6806538
v 0.2446222 0.07123667 0.6088643
v 0.23088977 0.14107144 0.6806538
v 0.16144131 0.13243523 0.7848592
v 0.17701188 0.50226045 0.5817691
v 0.26077372 0.24744955 0.60806847
v 0.19753045 0.3047546 0.68830144
v 0.27608398 0.397752 0.5611736
v 0.17701188 0.50226045 0.5817691
v 0.16941223 0.41445482 0.67015284
v 0.26077372 0.24744955 0.60806847
v 0.27608398 0.397752 0.5611736
v 0.2446222 0.07123667 0.6088643
v 0.22559184 -0.0055241203 0.6883411
v 0.30477715 0.23119324 0.52334267
v -0.15959263 0.42869234 0.66444325
v -0.039750375 0.5532423 0.60483027
v -0.037128963 0.48985422 0.68414116
v 0.09692971 0.49265403 0.65849566
vn -0.7230697 -0.36703885 -0.56528986
vn -0.33170095 -0.6403744 -0.6606172
vn -0.6789478 -0.54614556 -0.48114884
vn -0.005276859 -0.30022037 -0.9123695
vn 0.48993617 -0.53411496 -0.6798961
vn 0.02238281 -0.8135711 -0.54489374
vn 0.008440087 -0.98845685 -0.11083955
vn -0.38276303 -0.7075528 -0.5529288
vn 0.4222178 -0.65941715 -0.59909046
vn -0.89634657 0.16366944 -0.3358208
vn -0.83018416 0.038666993 -0.54198813
vn -0.8207195 -0.27453125 -0.49672967
vn -0.6551288 0.08499925 -0.6963557
vn -0.57388234 0.16008872 -0.75069267
vn -0.74565 0.4270625 -0.5103625
vn -0.7826 0.3406 -0.5212
vn -0.729 0.4464 -0.5189
vn -0.7961 0.3937 -0.4595
vn -0.95527536 0.074568555 -0.26815644
vn -0.83683103 0.135308 -0.52618563
vn -0.9064711 0.041026905 -0.381629
vn -0.83487695 0.3001836 -0.4501207
vn -0.8344875 -0.0065499996 -0.5503875
vn -0.7811043 0.13988808 -0.60047793
vn -0.8043 0.2572 -0.53552496
vn -0.5946063 -0.026024608 -0.7956023
vn -0.3944599 -0.1916171 -0.88227975
vn -0.6521339 0.3039627 -0.6821183
vn -0.37591955 -0.11243701 -0.911337
vn -0.14431709 -0.45815402 -0.85042125
vn -0.39607364 0.24671015 -0.8732529
vn 0.28959003 -0.6071746 -0.7229543
vn -0.2561586 -0.53517735 -0.7462998
vn 0.6038863 -0.5952996 -0.49503043
vn 0.7195286 -0.4752817 -0.4190821
vn 0.531 -0.51182497 -0.675125
vn -0.53635097 0.12428437 -0.78458786
vn 0.0035247765 0.40946132 -0.8666641
vn -0.86281985 -0.0036693066 -0.30138883
vn -0.7544051 -0.48621416 -0.16211806
vn -0.83963126 0.014323439 -0.5361328
vn -0.2388418 0.48706913 -0.8348135
vn -0.009552345 -0.7705041 -0.62915117
vn 0.26960224 -0.76905644 -0.52407414
vn 0.04650625 -0.7023375 -0.70956874
vn -0.60401326 0.43081522 -0.6457703
vn -0.026529882 -0.69251895 -0.718024
vn -0.80498457 -0.20593905 -0.21757755
vn -0.7554313 0.47806564 -0.43466252
vn -0.6583828 -0.7331828 0.12705626
vn -0.27705294 -0.7708005 -0.0069582425
vn -0.22815256 -0.7736927 -0.18858394
vn -0.041064054 0.580248 -0.6895037
vn 0.5016541 -0.7170695 -0.11839327
vn -0.3366753 -0.7860545 -0.46257138
vn -0.3720713 -0.85007584 -0.11315449
vn 0.16203852 -0.40356365 -0.8777151
vn 0.5186 0.3767 -0.7675
vn 0.683551 0.07495381 -0.69598556
vn 0.71465135 -0.26362556 -0.37621137
vn 0.13527891 0.4854633 -0.85361856
vn 0.43902513 0.01695541 -0.86915565
vn 0.41309687 0.3643469 -0.82756793
vn 0.16942656 -0.46022686 -0.8399354
vn -0.0571 -0.7207 -0.6909
vn -0.0919 -0.7226 -0.6851
vn -0.10735001 -0.28842872 -0.9152003
vn -0.5768736 -0.5867212 -0.52094597
vn -0.5290764 -0.53061223 -0.6354114
vn 0.41328362 -0.22440389 -0.8796867
vn 0.014483543 -0.6798541 -0.71700215
vn 0.56369007 0.16018212 -0.80473673
vn 0.5584644 -0.09507851 -0.8207867
vn 0.470299 -0.062287986 -0.8485478
vn 0.44458067 0.17083712 -0.8348565
vn 0.59503865 0.20505743 -0.77332246
vn 0.70331347 0.3016088 -0.61217535
vn 0.6410669 -0.011124607 -0.75880957
vn 0.8236531 0.12572812 -0.5441371
vn 0.4680618 -0.44860822 -0.7244212
vn 0.68928504 -0.04980776 -0.707093
vn 0.89837205 0.18575884 -0.2891935
vn 0.5986353 0.04718595 -0.7873384
vn 0.9089154 0.26147446 -0.30001405
vn 0.92824006 0.12943165 -0.33398527
vn 0.8856457 -0.10566367 -0.42117482
vn 0.6661459 -0.39416677 -0.60976857
vn -0.7351512 0.4979676 -0.45570272
vn -0.72964996 0.436175 -0.526175
vn -0.5970377 0.5148854 -0.60857797
vn -0.751275 0.36492342 -0.54911876
vn -0.45394373 0.5073447 -0.7278551
vn -0.3509914 0.62118316 -0.69311994
vn -0.5625123 0.6810833 -0.4526198
vn -0.5134 0.6033 -0.6103
vn -0.5691438 0.5933938 -0.5685656
vn -0.18055654 0.78761303 -0.576794
vn -0.33465838 0.64914453 -0.67168826
vn 0.22124594 0.7060088 -0.6550722
vn -0.011762891 0.6357582 -0.7627496
vn 0.066021875 0.8291828 -0.54916406
vn 0.39658976 0.7869776 -0.44769573
vn 0.26282188 0.5994594 -0.7551515
vn 0.42772305 0.49221173 -0.7531704
vn 0.5515562 0.61108434 -0.5650367
vn 0.449542 0.54884255 -0.7019857
vn 0.52171856 0.50385463 -0.68646944
vn 0.54801404 0.36233437 -0.7537
vn 0.62700355 0.532168 -0.5616269
vn -0.9900576 0.006757617 0.031220507
vn -0.88135004 -0.36859998 0.24925467
vn -0.7465727 -0.21669728 0.51912016
vn -0.8859365 -0.39211524 -0.04049785
vn -0.6466609 -0.67232186 0.33522344
vn -0.9812954 0.018466212 -0.15029697
vn -0.76293594 -0.5239619 -0.33024463
vn -0.596 -0.691 0.409
vn -0.019655664 -0.9983443 -0.044939846
vn -0.47664782 -0.82849544 0.037610013
vn -0.42047566 -0.8213785 -0.2069869
vn -0.030660218 -0.97305524 0.09965295
vn 0.259 -0.6683 0.6973
vn 0.49088672 -0.20845194 0.80711067
vn -0.19181225 -0.23990488 0.8561313
vn -0.093219824 -0.8540238 -0.43355274
vn 0.006974414 -0.99813807 -0.056164846
vn 0.3559 -0.6327 0.6878
vn 0.64042926 -0.39456964 0.63323104
vn 0.041905273 -0.9983338 -0.019756835
vn 0.16119671 -0.83604705 0.29501373
vn 0.24345976 -0.8261111 -0.36029246
vn 0.37290466 -0.84736705 0.16112104
vn 0.6339102 -0.48293203 0.5762289
vn 0.660298 -0.4023912 0.59360313
vn 0.5889928 -0.7641852 0.020191994
vn 0.8118503 -0.542685 -0.045130372
vn 0.8453498 -0.43311203 0.15709195
vn -0.81665623 -0.53474844 -0.106690235
vn -0.79731655 -0.42593634 -0.41165936
vn -0.7879559 -0.55858165 -0.0788166
vn -0.6530505 -0.61577797 0.35358918
vn -0.89690995 -0.34218407 0.13666523
vn -0.6912322 -0.36609718 0.56272733
vn -0.23426734 -0.9442102 -0.096420705
vn -0.24938495 -0.9338183 0.0016287109
vn -0.017983593 -0.9991672 -0.031328905
vn -0.27717388 -0.87616813 0.1985583
vn -0.571275 -0.37233496 0.6908524
vn -0.60280293 -0.41635245 0.6629573
vn 0.013688281 -0.9983281 -0.051209766
vn 0.0054920893 -0.99853003 -0.0015513673
vn -0.30053926 -0.7886237 0.46600765
vn 0.30102062 -0.8634809 0.28342608
vn 0.050583206 -0.69106954 0.67791134
vn 0.32190603 -0.87255347 -0.19308066
vn 0.77284324 -0.49807045 -0.29188243
vn 0.4895656 -0.83250254 0.020690236
vn -0.09282456 -0.25024548 0.87619734
vn 0.478 -0.6545 0.5858
vn 0.74712265 -0.18629596 0.60766315
vn 0.8913441 -0.34291455 -0.033377536
vn 0.909894 -0.13283 0.3236081
vn 0.73387444 -0.599584 0.29523087
vn -0.8889325 0.35359827 -0.13949102
vn -0.810999 0.48697576 0.22231025
vn -0.9549042 0.022477448 -0.26244962
vn -0.9294015 0.34084296 -0.11259375
vn -0.9078413 0.30134863 -0.0027998053
vn -0.6229969 0.4849133 0.5770563
vn -0.9491111 0.1294877 -0.12863183
vn -0.99526274 -0.009865161 -0.027303515
vn -0.9701965 0.21076289 -0.10098496
vn -0.98627657 0.050335355 -0.11565039
vn -0.98934996 0.12151328 0.011652735
vn -0.9401498 -0.2839418 0.15028223
vn -0.84480065 0.12155938 0.20493028
vn -0.6773125 0.70089376 0.21510625
vn -0.99238753 -0.06771231 -0.015258008
vn -0.9848984 0.15293515 0.046245314
vn -0.9446718 0.3168244 0.050590135
vn -0.6951368 -0.37777886 0.44120675
vn -0.93865705 0.22100312 -0.2603234
vn -0.92695165 0.32615185 -0.16386786
vn -0.86701643 0.3727913 -0.31634462
vn -0.15026838 -0.07759324 0.7959
vn 0.26020858 -0.5264264 0.7395308
vn -0.06760717 -0.85203326 0.37747055
vn -0.3614132 -0.82606256 3.330186E-4
vn -0.5484022 -0.69170487 0.45487422
vn -0.12905528 -0.94782865 0.26093692
vn 0.28761947 -0.7983612 0.3200301
vn -0.05443252 -0.99486816 0.07618203
vn 0.5370607 -0.7476072 0.21754493
vn 0.002041992 -0.9954172 -0.08581973
vn 0.50478125 -0.8292817 0.052996874
vn 0.0401834 -0.98572206 -0.1453205
vn 0.4579324 -0.8581784 -0.09475528
vn 0.030806543 -0.99777484 0.013862697
vn 0.08599326 -0.9400333 0.3033386
vn -0.37013984 -0.8591155 -0.00498672
vn -0.12483568 -0.94638216 0.03463728
vn -0.77674675 -0.5614376 0.1619667
vn -0.71787894 -0.63760626 -0.27117968
vn 0.06861153 -0.9196912 0.2281831
vn 0.13419546 -0.9048216 0.07750864
vn 0.03932745 -0.7474489 0.59258175
vn 0.3463417 -0.7319416 -0.35912135
vn -0.56935 -0.147625 0.80488753
vn 0.62558204 -0.65372765 0.29149044
vn -0.52755 -0.291375 0.795225
vn -0.5539814 -5.8183447E-4 0.8251346
vn -0.32101247 -0.20265114 0.7735574
vn 0.491175 -0.617925 0.6139
vn 0.4550159 0.3518257 0.6923794
vn 0.4195131 -0.22367951 0.6774549
vn 0.84627527 -0.16178966 0.30464345
vn 0.9097951 -0.350771 0.06072983
vn 0.70096684 -0.57321787 0.22560167
vn 0.90595627 0.34060624 -0.23873018
vn 0.95093733 0.26974863 -0.14245781
vn 0.9823699 0.045597754 -0.14536107
vn 0.94058585 0.31806836 -0.109658696
vn 0.9720863 0.2140746 -0.087319136
vn 0.89912343 0.4245125 -0.0857
vn 0.8585371 0.22100392 0.14832452
vn 0.990165 -0.094666205 -0.007343553
vn 0.9728583 0.0040700696 -0.05512148
vn 0.9886293 0.11334297 -0.08926016
vn 0.9916028 -0.07349961 -4.2304583E-4
vn 0.9952754 0.053075783 0.014712891
vn 0.9641937 0.25029218 0.06083203
vn 0.92465484 0.37061834 -0.019569727
vn 0.2516801 0.749948 0.4624884
vn 0.61039764 0.7463192 0.16765898
vn 0.05049432 0.75968146 0.5082205
vn 0.9506152 0.23983437 -0.16346991
vn 0.95191133 0.17820385 -0.06778955
vn 0.94712496 -0.031957813 -0.30601406
vn 0.70273435 0.70203435 0.07165938
vn 0.8192086 0.27119073 0.4010852
vn -0.9483297 0.30979687 -0.049096093
vn -0.89385974 0.4267555 -0.112482965
vn -0.86010194 0.49807262 -0.04795474
vn -0.8451902 0.5232867 0.08230488
vn -0.76688886 0.62481505 -0.12918516
vn -0.72625685 0.68159103 0.033346288
vn -0.77760744 0.5575125 -0.28187305
vn -0.722175 0.652525 -0.229175
vn -0.5780937 0.7575632 -0.28327107
vn -0.725 0.6699 -0.1599
vn -0.54523134 0.82406276 -0.13226436
vn -0.71555 0.60926795 -0.3402922
vn -0.68564373 0.59510624 -0.4188
vn -0.7073 0.5975 -0.3778
vn -0.6647 0.5481 -0.5077
vn -0.6927 0.5394 -0.4787
vn -0.7098355 0.6935848 -0.1156293
vn -0.64980364 0.74997413 0.07946552
vn -0.4332082 0.88629806 0.14758712
vn -0.43770412 0.81211394 -0.19224794
vn -0.36166152 0.9247626 -0.013519824
vn -0.33957678 0.8910235 -0.2854907
vn -0.33975583 0.9267855 -0.14381719
vn -0.14497285 0.96289617 0.16926944
vn -0.088268645 0.9837637 -0.06702148
vn -0.0442605 0.91212213 -0.39295584
vn -0.12705596 0.9594015 -0.23550166
vn 0.051100586 0.9831277 -0.14983477
vn 0.1265422 0.95103675 -0.26223773
vn 0.2261167 0.9654223 0.060586717
vn 0.36416778 0.9226875 -0.08479282
vn 0.34033084 0.9138959 -0.20259023
vn 0.2643354 0.88775885 -0.07644917
vn 0.4196453 0.90366876 0.051095314
vn 0.49056387 0.8462463 0.17297539
vn 0.58271456 0.8008545 -0.100332715
vn 0.583142 0.7444922 -0.30657792
vn 0.60086876 0.6546 -0.457825
vn 0.6350793 0.7656758 0.05171836
vn 0.6920521 0.7034086 -0.15999804
vn 0.66622347 0.6690711 -0.32234687
vn 0.8168199 0.530094 -0.18879257
vn 0.7359262 0.5488131 -0.3804123
vn 0.6868031 0.70234376 0.18535626
vn 0.70835 0.704075 -0.048100002
vn 0.70140314 0.7059289 -0.096544534
vn 0.82259744 0.5552723 -0.08318515
vn 0.70903206 0.7021047 0.0434125
vn 0.81508297 0.55869985 0.100600496
vn 0.8907613 0.42898986 0.12658983
vn -0.87319565 -0.316896 -0.08478833
vn -0.67244875 -0.42836934 0.5259507
vn -0.81972384 0.1782677 0.5244174
vn -0.7733 -0.3931 -0.4976
vn -0.4629888 -0.40421584 -0.6714287
vn -0.7592 -0.4417 -0.478
vn 0.012720312 -0.9992746 -0.020040624
vn -0.2548734 -0.84861326 0.2810293
vn -0.43209696 -0.8531097 -0.077308014
vn -0.17065841 -0.9042197 -0.25022206
vn 0.23359095 -0.9298982 -0.06333535
vn 0.2500244 -0.7242379 0.5615803
vn 0.2531824 -0.9124913 0.10357207
vn 0.12386328 -0.90371144 -0.27127278
vn 0.8397191 0.03632257 0.49638262
vn 0.8156638 -0.17826338 0.43994746
vn 0.7836831 -0.55598366 -0.062834814
vn 0.9771177 -0.11350964 -0.040106565
vn -0.8122375 -0.393511 -0.27517563
vn -0.7725 -0.48662657 -0.31745312
vn -0.91205114 -0.2088928 0.0076682847
vn -0.04500957 -0.9971258 -0.03546133
vn -0.50508416 -0.81599116 -0.02767202
vn -0.29265586 -0.83827674 -0.2952246
vn -0.17036909 -0.945492 0.096471295
vn -0.048985302 -0.84713197 0.28844947
vn -0.37039995 -0.49314117 -0.69355786
vn 0.09631873 -0.36504006 -0.84617984
vn 0.37437123 -0.33425713 -0.8160832
vn 0.2513882 -0.84954494 -0.34374708
vn 0.042057812 -0.997126 -0.004782226
vn 0.3440418 -0.85880256 0.040580615
vn 0.45364416 -0.7352266 0.4164871
vn -0.9604856 0.19245508 0.16291642
vn -0.9497936 0.053106155 0.2660217
vn -0.93669665 -0.1327506 -0.07247861
vn -0.9672929 0.05965376 0.17855293
vn -0.8674724 -0.121924415 -0.45324448
vn -0.89757645 0.27638292 0.33721495
vn -0.88139236 0.41926485 0.19951925
vn -0.81542695 0.08562148 0.5623516
vn -0.8333863 0.08471016 0.5364199
vn -0.7404895 -0.5833777 -0.28320235
vn -0.5698385 0.20945546 0.7803973
vn -0.7917645 -0.2831496 -0.5323832
vn -0.59678864 -0.4760004 -0.597291
vn -0.57552683 -0.17747188 -0.75272775
vn -0.7240574 -0.24747299 0.46661955
vn -0.58690155 0.15598477 0.78926444
vn -0.6530086 -0.013268359 0.7492703
vn -0.582441 0.12117266 0.80197144
vn -0.7016125 -0.70115006 0.06542499
vn -0.23674628 -0.60939765 -0.7161281
vn -0.5650445 -0.2725826 0.76042247
vn -0.49400038 -0.51265115 0.6967418
vn 0.14562407 0.023365669 0.917891
vn -0.2597469 0.2359162 0.9084958
vn -0.36957735 -0.29160294 0.83257854
vn -0.43177217 0.109427586 0.88312054
vn 0.1918842 -0.032050587 0.9338604
vn 0.2727043 -0.22309063 -0.92208576
vn -0.54617107 -0.050872974 0.8314328
vn -0.3377748 -0.33206993 0.8613426
vn -0.5435513 -0.24070229 0.8013699
vn 0.41217077 -0.2157904 -0.82148767
vn 0.4954236 0.15331347 0.8013356
vn -0.06961172 -0.19137031 0.9622637
vn 0.13727501 -0.66996247 -0.7231187
vn 0.3994281 -0.4933262 -0.7365336
vn -0.60334647 -0.63337386 0.4781623
vn -0.6523418 -0.6506297 0.37519568
vn -0.5096891 -0.4924078 0.70110315
vn 0.6960375 -0.18787695 0.6022715
vn 0.15389895 -0.84563303 -0.13148054
vn 0.07969375 -0.5903028 0.7875574
vn 0.65126634 -0.1377136 -0.691139
vn 0.66663456 -0.2710619 -0.6522402
vn 0.79435 -0.11624999 0.59555
vn 0.5064082 -0.5244121 0.64176404
vn -0.65620875 -0.62458754 0.38400072
vn -0.7222545 -0.34666926 0.11489493
vn 0.780836 -0.35279492 0.48305118
vn 0.7288578 -0.6528797 0.08309062
vn -0.0062574223 -0.9202777 0.38273203
vn -0.12990391 -0.6295757 0.76020074
vn -0.716 -0.6715 -0.191
vn -0.44047207 -0.67074764 0.5500641
vn -0.04725493 -0.7578133 -0.15604879
vn 0.18151611 -0.8975903 0.24162143
vn -0.240287 -0.7710131 0.49555585
vn 0.2348 -0.6902 0.6845
vn 0.3052 -0.6898 0.6566
vn 0.49479964 -0.6964594 0.4854629
vn 0.091459185 -0.61076176 0.75479925
vn -0.6749165 -0.6631384 -0.13406427
vn -0.34614453 -0.5567688 0.7318957
vn 0.5632947 -0.3083334 -0.7388203
vn -0.39108604 -0.342838 -0.747842
vn 0.1893 -0.6768 -0.7114
vn 0.596575 -0.67945 0.33195525
vn 0.52323675 -0.6630813 -0.48108512
vn 0.1550377 -0.73850995 0.58631045
vn -0.19569093 -0.310187 0.89542055
vn -0.79146105 -0.14923722 0.51253474
vn -0.7230844 -0.61920625 0.27625313
vn 0.33495334 -0.27892753 0.8789649
vn -0.6874422 -0.10884327 0.56259954
vn 0.4665922 -0.619311 0.6234281
vn -0.55575943 -0.5082332 0.6387461
vn -0.54964995 -0.29829374 0.7731031
vn -0.69130176 -0.24244155 -0.6164948
vn 0.24133907 -0.07162344 0.96096325
vn -0.18421094 -0.708618 -0.6703781
vn -0.38653648 -0.052349895 0.8164181
vn 0.024784967 0.109348044 0.96167403
vn -0.4785444 0.038520504 0.865819
vn 0.13920078 0.026395313 0.97999763
vn 0.6272632 -0.5586549 0.53144026
vn 0.61821675 -0.42249674 0.6268442
vn 0.31063738 0.23829801 0.85002196
vn 0.10008612 -0.28506017 0.8775398
vn 0.5917778 -0.017307032 0.79706836
vn 0.62406874 0.12594941 0.7636387
vn 0.7518126 -0.10042568 0.5966166
vn 0.7433926 0.15311211 0.64539886
vn 0.77577615 0.07531211 0.6242887
vn 0.5565281 -0.20743906 -0.8014805
vn 0.5756 -0.41705 -0.702875
vn 0.79035175 -0.15964967 0.4301838
vn 0.8147098 0.07035581 0.5726871
vn 0.8847583 0.22505927 0.39624882
vn 0.8678473 -0.07106992 0.09775498
vn 0.27626342 -0.7416747 -0.49414748
vn 0.06554455 -0.7634628 0.57971925
vn 0.37706405 -0.7821592 0.28243628
vn 0.78087497 0.22424376 0.5792375
vn 0.8853496 -0.2601447 0.09556946
vn 0.85707474 0.15515679 0.4705277
vn 0.949299 -0.15306407 -0.16284707
vn 0.77046967 -0.18465814 -0.49179775
vn 0.96270233 0.004632617 0.25787753
vn 0.96303225 0.05975234 0.21640506
vn 0.9726969 0.04180625 -0.020773433
vn 0.5818336 -0.31415343 -0.7319729
vn 0.9778076 0.14390625 0.08887871
vn 0.8911455 0.38886893 0.19396201
vn -0.82099587 -0.15818144 -0.12461288
vn -0.79435813 0.1480196 0.5860216
vn -0.7722644 0.094182424 0.40949982
vn -0.8116607 -0.022862561 0.36617035
vn -0.6707916 0.13897046 -0.6574782
vn 0.4609793 -0.014038281 -0.8703367
vn -0.16212964 -0.27576455 -0.836347
vn 0.13857135 0.37592763 -0.7900365
vn -0.7860898 0.115419924 0.6011906
vn -0.6462051 0.37316978 0.48114598
vn -0.10492593 -0.71086 -0.6763567
vn -0.5879284 -0.48759794 -0.57839906
vn -0.32530755 -0.35901773 -0.7434547
vn -0.54957974 0.13375598 -0.6380333
vn -0.8096109 -0.26530844 0.26116186
vn -0.81819725 0.1379629 0.55766565
vn -0.23931879 -0.85008585 0.016232923
vn -0.28548086 -0.8278711 0.27361992
vn -0.40082875 -0.75805706 -0.31220242
vn 0.597425 -0.031525 -0.801175
vn -0.8164039 0.14095038 0.55889535
vn -0.7095028 -0.124521874 0.61323357
vn -0.7675606 0.022769827 0.6074578
vn -0.4601032 -0.6616041 -0.5591055
vn 0.61713433 0.052206833 -0.7795742
vn 0.6084851 -0.003303125 -0.7929656
vn 0.64734423 0.23819506 -0.6687348
vn -0.8021196 -0.044701926 0.5541632
vn -0.876186 0.019734599 -0.18211208
vn -0.61092365 -0.017428711 0.78236187
vn -0.81473196 0.5122417 0.07724233
vn -0.8611787 0.02921531 0.41968328
vn -0.9412779 0.16815048 0.22575732
vn -0.029660162 -0.6942735 0.6820531
vn -0.6697657 0.47725978 0.42541787
vn -0.9006704 -0.16023612 0.3677788
vn 0.7129487 0.17147784 -0.6492561
vn -0.20819658 0.3056816 -0.7281122
vn -0.6496043 0.41703916 -0.62291825
vn -0.79095 0.30945 -0.52715003
vn -0.69781715 0.6648823 0.030428998
vn -0.6936 0.6977 0.1795
vn -0.6746911 -0.46574512 0.51736987
vn -0.6848069 0.17279124 0.6048267
vn -0.6592205 0.6899142 -0.037451953
vn -0.4853378 0.5515938 -0.6620883
vn -0.4710182 0.63576055 -0.52127516
vn -0.5681547 0.6157031 -0.5433203
vn -0.65769875 0.57657063 -0.48217654
vn -0.41081604 0.8127596 -0.3807942
vn -0.08455145 0.7701535 -0.28073895
vn -0.3644908 0.47061697 -0.7951492
vn -0.4777 0.6094 -0.6328
vn -0.4978 0.6065 -0.6199
vn -0.31368592 0.6773422 -0.6593986
vn -0.25449198 0.86047876 -0.27671605
vn -0.19962725 0.5564044 -0.7895789
vn -0.08439258 0.62303317 -0.7733805
vn -0.3170125 0.63756096 -0.7002578
vn -0.121926114 0.6711775 -0.7266898
vn 0.21975437 0.5725735 -0.7831563
vn 0.11034218 0.55999094 -0.80908114
vn 0.018010449 0.8698006 -0.4740103
vn 0.18745303 0.6398889 -0.7421638
vn 0.43162227 0.6811672 -0.5715398
vn 0.3121375 0.61775 -0.71615624
vn 0.45162088 0.45280486 -0.76158947
vn 0.33795 0.58105004 -0.7401
vn 0.2470375 0.6226171 -0.7423047
vn 0.46858642 0.6514706 -0.53300655
vn 0.21896742 0.7991372 0.13789017
vn 0.5710111 0.6911066 -0.3944133
vn 0.60969996 -0.62000936 0.49229687
vn 0.6633781 -0.65038127 0.3668219
vn 0.58098423 -0.6929 0.35845703
vn 0.67099255 0.7029301 -0.056819923
vn 0.6378 0.6594 -0.398
vn 0.62271094 0.551659 -0.54489684
vn 0.618 0.6681 -0.4143
vn 0.657444 0.32962644 -0.6656901
vn 0.5300222 0.46285942 -0.70523536
vn 0.5773211 0.605325 -0.54534847
vn 0.66221875 0.5709746 -0.39795464
vn 0.79928005 0.38984233 -0.21362332
vn 0.90674317 0.1728504 0.3091567
vn 0.8134169 0.4560005 0.24395663
vn 0.8331413 0.16965786 0.39045748
vn 0.8326372 0.0077506863 0.54206157
vn 0.7918708 -0.007580176 0.58316797
vn 0.8042083 -0.0045146495 0.5669042
vn 0.927764 -0.060147166 0.3303505
vn 0.80909824 -0.43625158 0.34880203
vn 0.70529455 0.7046902 0.06501602
vn -0.5446417 0.15285747 -0.72370946
vn -0.6366384 0.21298352 -0.62518305
vn -0.25689113 0.3744078 -0.755728
vn 0.6359625 -0.27464375 0.69259375
vn 0.30975685 -0.33921635 0.7569866
vn 0.7677784 0.093382224 0.6259351
vn -0.5221731 0.032498583 -0.81210876
vn 0.3924996 0.40966132 -0.7902074
vn 0.78266835 0.1067375 0.611959
vn 0.43506053 0.24415937 -0.8289027
vn 0.07620633 -0.31937024 -0.81591606
vn 0.31188226 -0.11210723 -0.8616986
vn 0.82255155 0.13829766 0.5513953
vn 0.7958436 -0.089950204 -0.27824593
vn 0.82063746 0.14991543 0.55114806
vn 0.78569376 -0.15334375 0.5977125
vn 0.7977555 -0.113849804 0.5766225
vn 0.8011637 0.14308086 0.5800545
vn -0.03435272 0.16224131 -0.8449147
vn 0.794 0.1374 0.5922
vn 0.7979733 0.11160615 0.5918579
vn 0.7845641 -0.001226563 0.6193828
vn 0.7754887 0.1084394 0.6187167
vn 0.7451753 -0.06425517 0.65006834
vn 0.79377496 0.096675 0.600375
vn 0.7971 0.0765 0.5989
vn 0.80018926 0.139658 0.5820492
vn 0.08849526 -0.5233855 -0.7994274
vn 0.7974751 -0.10833361 0.43375754
vn 0.7882074 0.15183829 0.59629023
vn 0.07099517 -0.7047719 -0.7001946
vn 0.7103117 0.026919533 0.69712263
vn 0.76672214 0.11638321 0.62763083
vn 0.37506688 -0.0743377 -0.8825321
vn 0.79208297 0.08259204 0.5999657
vn 0.7746875 0.0635 0.6280625
vn 0.8402 0.0524 0.5398
vn 0.7426707 0.55624104 -0.13306509
vn 0.48135155 0.67003125 0.546975
vn 0.058477417 0.66782475 0.35079792
vn -0.2832613 0.6675402 0.6575137
vn -0.41097707 0.8982345 -0.12770249
vn -0.23002711 0.8119637 0.27789435
vn -0.2076911 0.9594005 0.074471384
vn -0.5002729 0.77588904 0.36428672
vn -0.113118365 0.95605487 -0.21652666
vn 0.24901845 0.9563582 -0.01161797
vn 0.027868653 0.9598206 0.23747793
vn 0.333997 0.88264954 -0.29958123
vn 0.3069582 0.8533491 0.3916211
vn 0.52191186 0.81554365 0.20972598
vn 0.6566266 0.6729414 0.3347748
vn -0.7147059 0.5819675 0.07232608
vn -0.75103045 0.5647137 -0.2119707
vn -0.8311697 0.16306211 -0.52163965
vn -0.76620626 0.32168126 -0.5506656
vn -0.81168514 -0.44179767 -0.34258205
vn -0.9235942 -0.14912006 -0.035409033
vn -0.86651254 -0.0488772 0.31122372
vn -0.8680866 0.21480568 -0.26669043
vn -0.76643175 -0.14679949 0.50385356
vn -0.6424893 -0.3754918 0.598408
vn -0.3777244 -0.34319097 -0.76479894
vn -0.7918 -0.0166 -0.6106
vn -0.8684 -0.1039 -0.4848
vn -0.71465683 0.5419671 0.33984804
vn -0.7856834 -0.45306993 -0.3194251
vn -0.92807865 -0.0396979 -0.01808716
vn -0.87468755 -0.32262304 0.1882503
vn -0.6250484 0.0023710933 0.7684996
vn -0.8333145 -0.10945967 -0.42142305
vn -0.80550086 0.028267138 0.009234801
vn -0.027615622 -0.78464574 0.58738065
vn -0.5020757 -0.75820976 0.38214415
vn -0.41805 -0.62056255 0.6605344
vn -0.04822827 -0.9355811 0.1191769
vn -0.61164796 -0.66421175 -0.37393594
vn -0.38640648 -0.8423552 0.030374713
vn -0.497625 0.4411 0.746225
vn -0.53486544 0.021667536 0.84075606
vn -0.15248561 -0.19307208 0.9344298
vn 0.20142326 0.06291963 0.9496828
vn -0.0722 -0.7351 -0.6741
vn 0.28561446 -0.5959735 -0.71801543
vn -0.64779866 0.29512638 -0.6307894
vn 0.320538 0.40288967 -0.7828919
vn 0.15686426 -0.84834903 -0.41737792
vn -0.5104011 -0.77676535 -0.1173794
vn -0.15305349 -0.7644963 -0.56863606
vn 0.36329806 -0.85566497 0.07725761
vn -0.3186869 -0.7988695 0.3889457
vn 0.046592824 -0.22248963 0.8356316
vn -0.48171878 0.32825 0.8095172
vn 0.5310718 0.50021034 0.6051284
vn 0.44985247 0.7182248 -0.41533977
vn -0.5778307 0.75288355 0.20017959
vn -0.53064984 0.6873746 -0.41439265
vn 0.6267729 -0.3032247 0.6914252
vn -0.32529536 -0.40968284 0.80473936
vn 0.28644013 -0.48600176 -0.7732301
vn -0.017854005 -0.73019856 -0.6801734
vn 0.38918182 0.7386521 0.34743232
vn 0.3474875 -0.7406094 0.54397416
vn -0.15611017 -0.6835352 0.69324684
vn 0.5883274 -0.09014677 0.7641146
vn 0.13661875 -0.72101873 -0.6698844
vn 0.547674 -0.093829885 -0.8097953
vn 0.2729 -0.6579 0.7019
vn 0.18523002 -0.87989914 0.29644072
vn 0.32953104 -0.6342328 0.65096796
vn 0.75176096 0.15248045 0.6225039
vn 0.61710787 -0.46870476 0.59257144
vn 0.72720194 0.66329217 0.11731914
vn 0.67185986 0.31422892 -0.54319656
vn 0.7566448 -0.40234262 -0.27931926
vn 0.88356954 -0.31124333 0.05048164
vn 0.8056356 0.21703285 0.28345647
vn 0.7811767 -0.4287718 0.37596047
vn 0.87469125 -0.20133585 0.33480537
vn 0.81496966 -0.102752835 -0.3910402
vn 0.61441076 0.10905664 0.7559719
vn 0.8600346 -0.1095562 0.4750517
vn 0.9654832 -0.17456554 0.0024354458
vn 0.6308953 -0.43157268 -0.62546015
vn 0.8620439 -0.38480577 0.0191258
vn 0.8840748 -0.018643556 0.43024376
vn -0.8504104 -0.123483025 0.14444596
vn -0.76631546 -0.07736367 0.54538655
vn -0.7957876 0.13749167 -0.030901402
vn -0.6665663 0.30137765 0.59452325
vn -0.8188966 0.10478467 0.5613536
vn -0.5564479 0.494104 0.62972236
vn -0.59377503 0.6820953 0.42374843
vn -0.6281 0.6976 0.3447
vn -0.67138743 -0.6904846 -0.054009546
vn -0.6192945 -0.6974336 0.35668907
vn -0.39100158 -0.39277813 0.797818
vn -0.29560086 0.20122129 0.8445804
vn 0.4719127 0.0837186 0.61556035
vn -0.9342427 0.050037306 0.34090996
vn -0.77057916 0.3463959 0.48438668
vn -0.12360813 -0.71840745 -0.49827394
vn -0.041931447 -0.97221434 0.08002031
vn -0.78814876 -0.5015565 0.1861256
vn -0.61023986 0.41208166 0.6580899
vn 0.5986172 -0.6779117 0.37596643
vn -0.7417599 0.21437378 0.53946865
vn -0.62438375 0.41857255 0.6256609
vn -0.4389 0.6363 0.6344
vn -0.44934648 0.65189296 0.6056391
vn -0.007898539 0.7387266 0.6484258
vn -0.4647 0.5756 0.6729
vn -0.04959268 0.62838274 0.7349775
vn -0.4919 0.5426 0.6809
vn -0.3563 0.6489 0.6723
vn -0.13922499 0.6757649 0.71426624
vn -0.4057 0.6211 0.6705
vn 0.10499589 0.47617403 0.8363055
vn -0.4828875 0.46317813 0.74233747
vn -0.39869505 0.37316662 0.8225297
vn -0.26858124 0.69616246 0.65905005
vn -0.49500448 0.18789531 0.8422358
vn 0.11596731 0.2783851 0.9353868
vn -0.017218359 0.71400785 0.67644554
vn 0.33590811 0.6756597 0.6391714
vn 0.5109238 0.6213625 0.579842
vn 0.15414062 0.71143556 0.67506015
vn 0.29761192 -0.73782605 -0.52980673
vn 0.7054474 0.24926865 0.6500322
vn 0.6504039 0.42909062 0.61484337
vn 0.5925414 0.43297774 0.6636094
vn 0.5857922 0.58564395 0.53921247
vn 0.6153419 -0.7077803 -0.067393444
vn 0.851029 0.15592259 0.47411883
vn 0.59496194 -0.63035625 0.49289608
vn 0.8952452 -0.092871785 0.37538984
vn 0.854056 0.21978903 0.43227696
vn 0.59142184 0.6200882 0.51246405
vn 0.7001713 0.50568205 0.50106776
vn 0.7982197 0.13960278 0.5682905
vn 0.74971247 0.33868748 0.5665875
vn 0.7373047 -0.4476172 0.49469143
vn -0.08804761 0.30038387 0.725935
vn 0.474775 -0.6089781 0.6146875
vn -0.094074994 -0.613075 0.7716875
vn 0.20000501 -0.66251266 -0.53077555
vn 0.766298 0.2929992 0.50263906
vn 0.5946141 -0.6674899 -0.13474609
vn 0.66695184 0.37963906 0.6003593
vn 0.604375 0.046022072 0.7271781
vn 0.5471847 0.67548454 0.48597127
vn 0.81753016 0.10494976 0.5392519
vn 0.7660024 0.21447262 0.59448904
vn 0.66321874 0.50137657 0.52926093
vn 0.6418 0.6196875 0.4510125
vn 0.6678 0.5624 0.4877
vn 0.6718 -0.5271 0.5204
vn 0.7148087 0.17205238 0.5938108
vn 0.8223621 -0.28957087 -0.1233085
vn 0.6944399 -0.25341332 -0.3572533
vn 0.86978436 -0.0013859384 0.37194997
vn -0.4969254 0.6552863 0.5611613
vn -0.14276132 0.8419387 0.5003297
vn -0.16609107 0.70059466 0.68177766
vn 0.35729134 0.71166533 0.5940265
vt 0.32009888 0.6914874
vt 0.30837196 0.70965946
vt 0.30076426 0.6843095
vt 0.34072182 0.7402199
vt 0.3140174 0.7632283
vt 0.20904733 0.9555212
vt 0.21038815 0.9243611
vt 0.2373963 0.956445
vt 0.18014503 0.944412
vt 0.19312452 0.49309188
vt 0.19693106 0.51412827
vt 0.16304657 0.51749563
vt 0.39119914 0.7152935
vt 0.36278534 0.7057306
vt 0.374587 0.6888583
vt 0.224117 0.489304
vt 0.221861 0.490478
vt 0.222503 0.487469
vt 0.2460702 0.44911125
vt 0.27083975 0.47407073
vt 0.23396367 0.47429448
vt 0.29606736 0.44420043
vt 0.41247025 0.7031259
vt 0.43994728 0.71474993
vt 0.28933775 0.46577975
vt 0.42381 0.739452
vt 0.38728392 0.74746764
vt 0.46937594 0.73524666
vt 0.4237863 0.7710542
vt 0.37728006 0.77522004
vt 0.46536702 0.7774979
vt 0.3509211 0.7775065
vt 0.3987304 0.8028034
vt 0.7826022 0.54303163
vt 0.75806594 0.56296766
vt 0.7773876 0.53287077
vt 0.44268048 0.7976258
vt 0.45839345 0.82413983
vt 0.9680152 0.028692909
vt 0.9578659 0.014410755
vt 0.9751728 0.004969703
vt 0.49878696 0.7969312
vt 0.70877236 0.64768994
vt 0.72652876 0.62155104
vt 0.7447305 0.6384342
vt 0.42741877 0.8152852
vt 0.3687566 0.8287554
vt 0.9674816 0.060314275
vt 0.97554857 0.0381515
vt 0.57825255 0.9493816
vt 0.5744326 0.9669701
vt 0.5658721 0.92366475
vt 0.42842823 0.8296695
vt 0.54600817 0.9304473
vt 0.6803911 0.62955606
vt 0.6781112 0.59250534
vt 0.39549118 0.85155064
vt 0.9103 0.017882
vt 0.91830647 0.009561251
vt 0.93534505 0.03154203
vt 0.49923435 0.8325751
vt 0.4411642 0.85828054
vt 0.47785965 0.86529267
vt 0.37533182 0.8677423
vt 0.36459 0.844539
vt 0.675016 0.65887
vt 0.34762508 0.8819213
vt 0.334579 0.8463376
vt 0.31622788 0.86016226
vt 0.40444094 0.8808396
vt 0.3064288 0.8943695
vt 0.44844824 0.88892347
vt 0.41498524 0.8958977
vt 0.3832236 0.89934343
vt 0.36212426 0.9181486
vt 0.36084676 0.1449261
vt 0.38772783 0.12753007
vt 0.3645695 0.17548965
vt 0.392847 0.16416964
vt 0.32149547 0.9220451
vt 0.37677023 0.2036005
vt 0.42177734 0.20731044
vt 0.37280256 0.2447187
vt 0.43765974 0.13442466
vt 0.42416406 0.16789177
vt 0.4068147 0.2647168
vt 0.38590592 0.2786169
vt 0.32593536 0.41756046
vt 0.3193285 0.43558973
vt 0.5096945 0.73853886
vt 0.48326996 0.7165798
vt 0.50589955 0.765681
vt 0.52832067 0.776716
vt 0.5695038 0.856886
vt 0.578511 0.883805
vt 0.5676949 0.87691665
vt 0.6169544 0.87475204
vt 0.6016519 0.89208674
vt 0.6635922 0.88696134
vt 0.5244502 0.81492645
vt 0.6469597 0.8694378
vt 0.68453896 0.85180324
vt 0.52178824 0.8425759
vt 0.5015765 0.8644396
vt 0.7054322 0.8713302
vt 0.6901485 0.90005744
vt 0.3818959 0.092893325
vt 0.36510074 0.1188733
vt 0.40894672 0.08629534
vt 0.13375463 0.42581052
vt 0.09556979 0.42020297
vt 0.10073733 0.39560378
vt 0.10674654 0.45335343
vt 0.08780865 0.4211912
vt 0.14473368 0.46027023
vt 0.12867102 0.4981233
vt 0.085901 0.41145
vt 0.96667504 0.7547168
vt 0.99377525 0.71604955
vt 0.9881476 0.77312315
vt 0.96309537 0.7038425
vt 0.879098 0.237396
vt 0.85599184 0.23439589
vt 0.87286854 0.20678738
vt 0.9536042 0.81709874
vt 0.9487407 0.78207695
vt 0.876911 0.245347
vt 0.8580519 0.2626232
vt 0.932308 0.7469293
vt 0.93287826 0.702789
vt 0.920123 0.8118608
vt 0.90515757 0.7436931
vt 0.8497959 0.28894776
vt 0.83553755 0.26996383
vt 0.8969048 0.77305996
vt 0.7790969 0.5842388
vt 0.7678176 0.61088324
vt 0.2618093 0.6646891
vt 0.25067073 0.68060696
vt 0.23530304 0.6520103
vt 0.2580607 0.5932278
vt 0.23828503 0.63017404
vt 0.23497792 0.5849962
vt 0.24999443 0.93148965
vt 0.25676262 0.89895386
vt 0.22415188 0.8778727
vt 0.25098437 0.86564636
vt 0.24272624 0.5406393
vt 0.25893712 0.55429816
vt 0.20014858 0.89517224
vt 0.20580351 0.85142004
vt 0.23322795 0.8229847
vt 0.19494265 0.81465507
vt 0.21119641 0.7966303
vt 0.17620602 0.8951417
vt 0.4370492 0.30374232
vt 0.17538293 0.8435062
vt 0.3253324 0.97755253
vt 0.310575 0.995183
vt 0.30425647 0.9823664
vt 0.48926893 0.30469513
vt 0.52940893 0.2942415
vt 0.5203056 0.31433433
vt 0.1619547 0.43209326
vt 0.14564945 0.39776307
vt 0.16221459 0.48574615
vt 0.1841264 0.45603213
vt 0.18850423 0.42490816
vt 0.13271388 0.37340337
vt 0.21144487 0.4474131
vt 0.20896234 0.37200606
vt 0.25068942 0.36579472
vt 0.23083036 0.41297737
vt 0.22496283 0.3295501
vt 0.16962893 0.33967158
vt 0.16695839 0.38902056
vt 0.17075525 0.41317537
vt 0.18246111 0.30222142
vt 0.2145431 0.29697797
vt 0.24221975 0.30024743
vt 0.13744959 0.35958183
vt 0.2732494 0.4285405
vt 0.28629428 0.3821254
vt 0.30410305 0.41276217
vt 0.83458644 0.2066934
vt 0.8354902 0.2398849
vt 0.72082937 0.4535738
vt 0.71122956 0.4133221
vt 0.73908556 0.4277033
vt 0.6773374 0.44586307
vt 0.71108097 0.48622668
vt 0.67052186 0.47780856
vt 0.7070157 0.52466977
vt 0.6791763 0.51836896
vt 0.70332384 0.55017895
vt 0.68701005 0.55222356
vt 0.7070921 0.58108807
vt 0.6484008 0.50365114
vt 0.6245513 0.45549035
vt 0.65860295 0.5594336
vt 0.63887614 0.53000903
vt 0.26053947 0.6309209
vt 0.26736397 0.681478
vt 0.6027093 0.49665666
vt 0.5925486 0.45131314
vt 0.5751802 0.5003579
vt 0.55951446 0.45976016
vt 0.26318276 0.53872514
vt 0.5460865 0.48461857
vt 0.24763475 0.52563226
vt 0.26557916 0.5324365
vt 0.34541437 0.9576142
vt 0.3362225 0.939185
vt 0.3014936 0.9465505
vt 0.32554418 0.93550533
vt 0.53960145 0.23591015
vt 0.5758767 0.21562123
vt 0.5657276 0.2474972
vt 0.45718402 0.11343096
vt 0.48428398 0.12774895
vt 0.4617355 0.18361755
vt 0.5130335 0.11709608
vt 0.53015316 0.14190155
vt 0.46078992 0.23062176
vt 0.5071827 0.22996521
vt 0.5197932 0.19815516
vt 0.48072338 0.20593877
vt 0.5043879 0.1655545
vt 0.5909146 0.18413565
vt 0.54806685 0.169031
vt 0.5880352 0.14078742
vt 0.55321074 0.11293404
vt 0.72930086 0.2854956
vt 0.7176857 0.32401937
vt 0.7208389 0.2828043
vt 0.43155235 0.24015577
vt 0.48839322 0.2611837
vt 0.43214726 0.27583143
vt 0.7261152 0.32625255
vt 0.5402802 0.26558733
vt 0.25629526 0.3249338
vt 0.2929252 0.34737146
vt 0.28695378 0.31242585
vt 0.27250656 0.2818185
vt 0.3184545 0.33645737
vt 0.29994196 0.28446236
vt 0.3249371 0.3802247
vt 0.33092976 0.35982352
vt 0.56387883 0.8232707
vt 0.542095 0.796127
vt 0.5648936 0.7833442
vt 0.5465941 0.83850783
vt 0.55141073 0.85583735
vt 0.548379 0.847993
vt 0.55448 0.869987
vt 0.550466 0.866139
vt 0.5431871 0.7803392
vt 0.5454 0.7209523
vt 0.57475924 0.7131004
vt 0.5741474 0.6784856
vt 0.58901596 0.74369097
vt 0.5962118 0.82268035
vt 0.59507924 0.78225267
vt 0.61794615 0.70594573
vt 0.6245931 0.757042
vt 0.6320628 0.8424649
vt 0.6199634 0.8065251
vt 0.6423427 0.7799969
vt 0.65327406 0.81492317
vt 0.6596824 0.72501653
vt 0.6797908 0.76021224
vt 0.6776704 0.7979714
vt 0.66211206 0.680166
vt 0.6887617 0.72704935
vt 0.70002234 0.69563043
vt 0.7112349 0.7656201
vt 0.7101359 0.8233667
vt 0.7114715 0.85424614
vt 0.7192122 0.72092223
vt 0.7248768 0.78975374
vt 0.456738 0.06316307
vt 0.48251477 0.08177827
vt 0.43971163 0.081818104
vt 0.726832 0.69135845
vt 0.7279217 0.7421655
vt 0.5197575 0.05964285
vt 0.52589464 0.07958506
vt 0.56356263 0.06544876
vt 0.581201 0.08879791
vt 0.59603435 0.11311151
vt 0.040106595 0.31015068
vt 0.009656173 0.27609843
vt 0.055803917 0.26882958
vt 0.909718 0.619965
vt 0.9262364 0.621155
vt 0.909397 0.623311
vt 0.93672866 0.21627057
vt 0.95406795 0.19377837
vt 0.9739369 0.23273
vt 0.9504819 0.2612211
vt 0.9034587 0.2406467
vt 0.913407 0.18231416
vt 0.9043274 0.19969712
vt 0.9175574 0.26704493
vt 0.93937624 0.10183139
vt 0.9755391 0.10341999
vt 0.97171235 0.13660571
vt 0.93992263 0.13528332
vt 0.800641 0.9333249
vt 0.8058475 0.9723686
vt 0.7764114 0.9668305
vt 0.95136607 0.89236057
vt 0.98085314 0.8804333
vt 0.9648188 0.9155827
vt 0.9638413 0.8534866
vt 0.93904144 0.84204483
vt 0.88409525 0.96806896
vt 0.8402343 0.93431455
vt 0.8755003 0.920621
vt 0.9178692 0.91851586
vt 0.92054397 0.8627779
vt 0.90200806 0.8753812
vt 0.9111476 0.84571767
vt 0.19413817 0.27229017
vt 0.15868518 0.26886183
vt 0.12964383 0.29537156
vt 0.081735805 0.2891072
vt 0.074986346 0.31841397
vt 0.1908522 0.24199197
vt 0.23225406 0.2624098
vt 0.1075173 0.25275266
vt 0.14562048 0.23927699
vt 0.13051982 0.32470778
vt 0.032117836 0.25618947
vt 0.9062178 0.54040694
vt 0.9250214 0.5494888
vt 0.91826165 0.5823012
vt 0.16762343 0.20858845
vt 0.074647546 0.24267088
vt 0.13191241 0.21563484
vt 0.09259455 0.2332496
vt 0.1283055 0.33207327
vt 0.9510457 0.56681305
vt 0.14758405 0.18104544
vt 0.16672698 0.1742367
vt 0.18888152 0.77432764
vt 0.2112252 0.7479103
vt 0.21500628 0.78357947
vt 0.21289733 0.70261115
vt 0.18249461 0.7128216
vt 0.96556014 0.59132755
vt 0.21185163 0.65070766
vt 0.17910352 0.64124715
vt 0.2064043 0.6186403
vt 0.97716296 0.6131245
vt 0.17161244 0.74320054
vt 0.17841882 0.6697073
vt 0.97159505 0.5741707
vt 0.98253715 0.58212066
vt 0.13894522 0.14462206
vt 0.15922233 0.14560157
vt 0.13012773 0.16868678
vt 0.1624478 0.7776392
vt 0.6706953 0.4071964
vt 0.13738799 0.6797006
vt 0.9493554 0.16879581
vt 0.92972636 0.164422
vt 0.15620649 0.723159
vt 0.14313063 0.70627856
vt 0.120960176 0.16100231
vt 0.11170012 0.14648063
vt 0.9137501 0.104706995
vt 0.91566753 0.13952592
vt 0.639588 0.42640653
vt 0.14081478 0.6545112
vt 0.288059 0.945669
vt 0.27782494 0.95062506
vt 0.2818346 0.93136764
vt 0.6330683 0.39052844
vt 0.6057656 0.36648464
vt 0.623899 0.346783
vt 0.628318 0.347958
vt 0.6336818 0.35428616
vt 0.10863894 0.6593602
vt 0.59839296 0.40603158
vt 0.098806106 0.69415927
vt 0.77944857 0.2817513
vt 0.74846196 0.29738653
vt 0.772219 0.277656
vt 0.28427914 0.89348954
vt 0.28805232 0.906795
vt 0.27605784 0.9126882
vt 0.083824016 0.6788628
vt 0.7498894 0.929713
vt 0.7737266 0.91912377
vt 0.07243459 0.6388049
vt 0.74277806 0.9769898
vt 0.09731151 0.6347243
vt 0.7498186 0.9092703
vt 0.73465586 0.9069102
vt 0.85493654 0.9822905
vt 0.05766408 0.6635883
vt 0.83653885 0.9624289
vt 0.066041574 0.7681542
vt 0.048119277 0.72216296
vt 0.07144474 0.7269112
vt 0.05064439 0.6929257
vt 0.08715593 0.61639816
vt 0.050604727 0.5941861
vt 0.028674055 0.74878496
vt 0.041647322 0.7759441
vt 0.032544486 0.6454278
vt 0.020984367 0.68562275
vt 0.024130646 0.6088553
vt 0.008317305 0.7073221
vt 0.008632719 0.6617465
vt 0.834746 0.9047622
vt 0.81469953 0.90499854
vt 0.6792487 0.16853234
vt 0.6680037 0.21611771
vt 0.65145004 0.16741763
vt 0.66341704 0.15071975
vt 0.94515747 0.49124882
vt 0.9521123 0.43800825
vt 0.9582218 0.45487064
vt 0.6803362 0.31402713
vt 0.65181005 0.3231118
vt 0.6667153 0.28364003
vt 0.6152389 0.21923323
vt 0.61229444 0.25973055
vt 0.6420379 0.23311767
vt 0.6320492 0.18740612
vt 0.63675773 0.28870815
vt 0.60647786 0.31579626
vt 0.61358577 0.163331
vt 0.6234389 0.12883082
vt 0.27055067 0.22397962
vt 0.2517189 0.1906676
vt 0.29658848 0.20043096
vt 0.2276728 0.21334532
vt 0.7749088 0.86744213
vt 0.79769033 0.85079193
vt 0.8177749 0.87516713
vt 0.7467046 0.82726467
vt 0.29331088 0.15656257
vt 0.3388202 0.1404694
vt 0.87422067 0.8905718
vt 0.8431638 0.8931128
vt 0.8673216 0.8701414
vt 0.8472463 0.8440715
vt 0.19580704 0.2094191
vt 0.21652153 0.18542993
vt 0.94339347 0.37415487
vt 0.95795083 0.36909014
vt 0.9557903 0.39870816
vt 0.81679475 0.8502202
vt 0.25168875 0.15351273
vt 0.17862752 0.18496901
vt 0.20801061 0.15550156
vt 0.89120036 0.8810818
vt 0.8372166 0.628878
vt 0.8243152 0.63628304
vt 0.80253017 0.579521
vt 0.3143417 0.122412905
vt 0.2168527 0.23079649
vt 0.17925918 0.1702389
vt 0.25511187 0.24470827
vt 0.22957465 0.11552164
vt 0.26024237 0.11908443
vt 0.9456048 0.34627116
vt 0.29660466 0.09353156
vt 0.19713406 0.114482835
vt 0.8231536 0.57043266
vt 0.81337166 0.82285035
vt 0.8350407 0.8123596
vt 0.84647155 0.833305
vt 0.2766748 0.24161841
vt 0.28597 0.260633
vt 0.17555243 0.15333262
vt 0.24274382 0.07065338
vt 0.54653794 0.6808707
vt 0.7984285 0.7774695
vt 0.8836812 0.5216085
vt 0.89904785 0.50750685
vt 0.8953433 0.51766837
vt 0.87645084 0.48710793
vt 0.8558322 0.5140573
vt 0.82744616 0.7733216
vt 0.790823 0.771798
vt 0.790705 0.774904
vt 0.9045794 0.4762771
vt 0.6044328 0.67732084
vt 0.8299432 0.74200284
vt 0.8078279 0.7231822
vt 0.79440534 0.7528822
vt 0.9101219 0.4501471
vt 0.8321691 0.68819374
vt 0.84794486 0.7114375
vt 0.87853074 0.43367943
vt 0.9086418 0.40927622
vt 0.8883894 0.38005817
vt 0.8663181 0.69119793
vt 0.8692504 0.6684443
vt 0.90734 0.385682
vt 0.9079355 0.40102226
vt 0.69308126 0.66493124
vt 0.8273866 0.36470774
vt 0.86175925 0.3612709
vt 0.0042712186 0.8017955
vt 0.011055906 0.79779
vt 0.017604012 0.81100994
vt 0.71525246 0.66931504
vt 0.678699 0.003692
vt 0.6660975 0.023983613
vt 0.675908 0.003329
vt 0.6459391 0.06223382
vt 0.6364634 0.037812203
vt 0.6617751 0.010797188
vt 0.6231394 0.06659742
vt 0.6298156 0.09446834
vt 0.4556798 0.43171635
vt 0.48796284 0.41388506
vt 0.49102584 0.44934607
vt 0.46160376 0.3946222
vt 0.48599535 0.38957798
vt 0.4234429 0.47371852
vt 0.45365196 0.47759783
vt 0.4237622 0.508391
vt 0.6139187 0.07494291
vt 0.85208297 0.050292052
vt 0.84116364 0.023050258
vt 0.881149 0.023603104
vt 0.039457373 0.5610266
vt 0.027058247 0.58125544
vt 0.023182414 0.5446195
vt 0.869394 0.080106646
vt 0.8396109 0.07739045
vt 0.011278019 0.55780333
vt 0.839655 0.103817
vt 0.87380296 0.12790293
vt 0.8406904 0.13514262
vt 0.42557156 0.43152416
vt 0.65053725 0.12950851
vt 0.39832994 0.45278144
vt 0.46373582 0.36961475
vt 0.47900122 0.36423337
vt 0.42733487 0.40275383
vt 0.8923119 0.061635196
vt 0.408644 0.467536
vt 0.39598468 0.4810482
vt 0.31278247 0.5594111
vt 0.3088196 0.5771092
vt 0.2875671 0.54654765
vt 0.0025845 0.5856525
vt 0.003991 0.575786
vt 0.40132302 0.42406112
vt 0.84778094 0.15484546
vt 0.37117803 0.48747623
vt 0.38007823 0.44566527
vt 0.8406812 0.1681874
vt 0.27890244 0.5862853
vt 0.30420232 0.61686087
vt 0.896676 0.10102464
vt 0.2959438 0.6451949
vt 0.28070825 0.61889684
vt 0.27608 0.609059
vt 0.8284248 0.54322344
vt 0.27996927 0.79311824
vt 0.2798051 0.81199086
vt 0.27315056 0.8061708
vt 0.8448827 0.4876861
vt 0.8262525 0.51592875
vt 0.81432056 0.4610644
vt 0.7926316 0.49616694
vt 0.84755707 0.44974434
vt 0.8202513 0.41714323
vt 0.795941 0.43892747
vt 0.8578549 0.3985334
vt 0.77870834 0.41711682
vt 0.8008318 0.38207448
vt 0.795401 0.3624691
vt 0.68069524 0.93000364
vt 0.6974646 0.94206476
vt 0.68429327 0.9503871
vt 0.8524717 0.005281625
vt 0.10013309 0.059031576
vt 0.07417652 0.045534246
vt 0.106580116 0.02789786
vt 0.038163822 0.08636074
vt 0.04759305 0.040830813
vt 0.01603746 0.06416367
vt 0.6017608 0.9373457
vt 0.58766 0.960196
vt 0.584743 0.950525
vt 0.06266743 0.1319479
vt 0.039921213 0.15317848
vt 0.027223125 0.120584436
vt 0.010574838 0.09831935
vt 0.0754412 0.019642575
vt 0.073359735 0.15980661
vt 0.09677245 0.1483989
vt 0.04829405 0.8757087
vt 0.025844365 0.91989815
vt 0.034993254 0.89870316
vt 0.06619845 0.88614684
vt 0.09674752 0.90661216
vt 0.07917453 0.91105056
vt 0.08754725 0.13075475
vt 0.82109195 0.1759012
vt 0.80093354 0.21755156
vt 0.786232 0.17327766
vt 0.611299 0.917749
vt 0.6361323 0.92821765
vt 0.59661436 0.97332436
vt 0.6307619 0.97135067
vt 0.86358833 0.60884017
vt 0.89672256 0.5913345
vt 0.8877368 0.6227896
vt 0.8611704 0.5697299
vt 0.88987416 0.55110765
vt 0.38764644 0.95784146
vt 0.4098697 0.9538574
vt 0.41967905 0.9847152
vt 0.92522424 0.2885095
vt 0.89747316 0.31553954
vt 0.8970201 0.28667766
vt 0.7689953 0.23366857
vt 0.8044634 0.24581377
vt 0.77921337 0.3101769
vt 0.7587789 0.3268124
vt 0.9209106 0.31977123
vt 0.8605935 0.5424334
vt 0.8842418 0.53229976
vt 0.7703399 0.1986381
vt 0.8589603 0.6285924
vt 0.6422173 0.951575
vt 0.043119 0.858402
vt 0.053938903 0.8413066
vt 0.77451575 0.26769608
vt 0.39688438 0.9867563
vt 0.37060076 0.9860926
vt 0.3905592 0.62272924
vt 0.42934036 0.63764083
vt 0.3670024 0.63189363
vt 0.3919882 0.65917695
vt 0.3777271 0.5936705
vt 0.42097262 0.67524
vt 0.45353153 0.6599989
vt 0.46116835 0.6287445
vt 0.76552993 0.1505768
vt 0.48659587 0.63641703
vt 0.4841785 0.6120219
vt 0.46476096 0.60134387
vt 0.48098856 0.578099
vt 0.50610626 0.6049806
vt 0.16592497 0.102465354
vt 0.21398982 0.07958418
vt 0.12569164 0.09117511
vt 0.1535581 0.07566263
vt 0.1890728 0.06659982
vt 0.25547063 0.046424385
vt 0.28276193 0.06317896
vt 0.288371 0.075465
vt 0.031163322 0.942395
vt 0.008937133 0.93922603
vt 0.7071619 0.93432385
vt 0.71150494 0.9209723
vt 0.7187848 0.94112265
vt 0.16413695 0.038286623
vt 0.2016812 0.03051817
vt 0.06443198 0.94805825
vt 0.052768737 0.91498125
vt 0.12863375 0.06673041
vt 0.23504208 0.034343492
vt 0.06665625 0.92772526
vt 0.14133298 0.013449931
vt 0.17378592 0.008727351
vt 0.670454 0.980878
vt 0.6554297 0.9790661
vt 0.66393113 0.9513682
vt 0.822351 0.075196
vt 0.7951059 0.059477277
vt 0.822283 0.071401
vt 0.811581 0.030635
vt 0.79751974 0.012945377
vt 0.814865 0.031576
vt 0.78867126 0.091146685
vt 0.8219457 0.08502115
vt 0.8180519 0.11165231
vt 0.65125585 0.96725297
vt 0.8221295 0.14171776
vt 0.78969467 0.13149065
vt 0.78892195 0.0281616
vt 0.7540753 0.00836315
vt 0.7583068 0.04976408
vt 0.7807884 0.04566335
vt 0.09466585 0.85424304
vt 0.75938845 0.11808984
vt 0.7553755 0.07664643
vt 0.7309305 0.03326183
vt 0.7509772 0.042880192
vt 0.09159703 0.8401334
vt 0.52221626 0.5670514
vt 0.019408574 0.82566303
vt 0.4924633 0.5503939
vt 0.52164173 0.52480364
vt 0.71598345 0.014480743
vt 0.5332786 0.49295533
vt 0.50173855 0.49058014
vt 0.5216204 0.47868225
vt 0.47070396 0.55679834
vt 0.4318936 0.9459022
vt 0.43676656 0.96388274
vt 0.43160677 0.9624079
vt 0.06567009 0.80152774
vt 0.47227407 0.5300406
vt 0.03578899 0.8045319
vt 0.4500572 0.93336135
vt 0.45221823 0.94222337
vt 0.7712493 0.38868478
vt 0.4760363 0.49010542
vt 0.7243181 0.06189069
vt 0.7016032 0.03999243
vt 0.50759137 0.42993063
vt 0.506837 0.436019
vt 0.699249 0.069961
vt 0.69580936 0.053175494
vt 0.44070342 0.5323964
vt 0.44605216 0.56644887
vt 0.47826833 0.46547085
vt 0.7703763 0.4933495
vt 0.77127993 0.45756626
vt 0.75247407 0.4624157
vt 0.7576673 0.41410163
f 1/1/1 2/2/2 3/3/3
f 4/4/4 5/5/5 2/2/2
f 6/6/6 7/7/7 8/8/8
f 9/9/9 7/7/7 6/6/6
f 10/10/10 11/11/11 12/12/12
f 13/13/13 14/14/14 15/15/15
f 16/16/16 17/17/17 18/18/18
f 19/19/19 20/20/20 21/21/21
f 1/1/1 14/14/14 2/2/2
f 20/20/20 19/19/19 22/22/22
f 2/2/2 14/14/14 4/4/4
f 23/23/23 24/24/24 13/13/13
f 20/20/20 22/22/22 25/25/25
f 13/13/13 24/24/24 26/26/26
f 14/14/14 27/27/27 4/4/4
f 14/14/14 13/13/13 27/27/27
f 26/26/26 24/24/24 28/28/28
f 26/26/26 27/27/27 13/13/13
f 29/29/29 26/26/26 28/28/28
f 26/26/26 29/29/29 27/27/27
f 30/30/30 4/4/4 27/27/27
f 27/27/27 29/29/29 30/30/30
f 29/29/29 28/28/28 31/31/31
f 30/30/30 32/32/32 4/4/4
f 29/29/29 33/33/33 30/30/30
f 34/34/34 35/35/35 36/36/36
f 29/29/29 37/37/37 33/33/33
f 31/31/31 37/37/37 29/29/29
f 31/31/31 38/38/38 37/37/37
f 39/39/39 40/40/40 41/41/41
f 42/42/42 38/38/38 31/31/31
f 43/43/43 44/44/44 45/45/45
f 46/46/46 37/37/37 38/38/38
f 33/33/33 47/47/47 30/30/30
f 48/48/48 39/39/39 49/49/49
f 50/50/50 51/51/51 52/52/52
f 46/46/46 38/38/38 53/53/53
f 51/51/51 54/54/54 52/52/52
f 44/44/44 55/55/55 56/56/56
f 55/55/55 44/44/44 43/43/43
f 57/57/57 47/47/47 33/33/33
f 58/58/58 59/59/59 60/60/60
f 38/38/38 61/61/61 62/62/62
f 62/62/62 61/61/61 63/63/63
f 64/64/64 65/65/65 57/57/57
f 66/66/66 55/55/55 43/43/43
f 64/64/64 67/67/67 68/68/68
f 68/68/68 67/67/67 69/69/69
f 70/70/70 64/64/64 57/57/57
f 70/70/70 57/57/57 62/62/62
f 67/67/67 71/71/71 69/69/69
f 62/62/62 63/63/63 72/72/72
f 62/62/62 73/73/73 70/70/70
f 74/74/74 64/64/64 70/70/70
f 67/67/67 64/64/64 74/74/74
f 62/62/62 72/72/72 73/73/73
f 70/70/70 73/73/73 74/74/74
f 67/67/67 74/74/74 75/75/75
f 76/76/76 77/77/77 78/78/78
f 75/75/75 71/71/71 67/67/67
f 79/79/79 78/78/78 77/77/77
f 75/75/75 80/80/80 71/71/71
f 81/81/81 78/78/78 79/79/79
f 82/82/82 83/83/83 81/81/81
f 79/79/79 77/77/77 84/84/84
f 82/82/82 81/81/81 79/79/79
f 79/79/79 84/84/84 85/85/85
f 82/82/82 79/79/79 85/85/85
f 86/86/86 87/87/87 83/83/83
f 82/82/82 86/86/86 83/83/83
f 22/22/22 88/88/88 89/89/89
f 90/90/90 28/28/28 91/91/91
f 92/92/92 28/28/28 90/90/90
f 93/93/93 92/92/92 90/90/90
f 94/94/94 95/95/95 96/96/96
f 28/28/28 92/92/92 31/31/31
f 94/94/94 97/97/97 98/98/98
f 31/31/31 92/92/92 42/42/42
f 93/93/93 42/42/42 92/92/92
f 98/98/98 97/97/97 99/99/99
f 42/42/42 93/93/93 100/100/100
f 42/42/42 61/61/61 38/38/38
f 42/42/42 100/100/100 61/61/61
f 101/101/101 99/99/99 97/97/97
f 99/99/99 101/101/101 102/102/102
f 61/61/61 103/103/103 104/104/104
f 61/61/61 104/104/104 63/63/63
f 105/105/105 106/106/106 99/99/99
f 102/102/102 105/105/105 99/99/99
f 107/107/107 77/77/77 108/108/108
f 108/108/108 77/77/77 76/76/76
f 77/77/77 107/107/107 109/109/109
f 84/84/84 77/77/77 109/109/109
f 110/110/110 111/111/111 112/112/112
f 111/111/111 113/113/113 114/114/114
f 115/115/115 116/116/116 113/113/113
f 117/117/117 112/112/112 111/111/111
f 118/118/118 119/119/119 120/120/120
f 118/118/118 121/121/121 119/119/119
f 122/122/122 123/123/123 124/124/124
f 125/125/125 126/126/126 120/120/120
f 126/126/126 118/118/118 120/120/120
f 127/127/127 128/128/128 123/123/123
f 118/118/118 129/129/129 121/121/121
f 129/129/129 118/118/118 126/126/126
f 129/129/129 130/130/130 121/121/121
f 125/125/125 131/131/131 126/126/126
f 131/131/131 129/129/129 126/126/126
f 130/130/130 129/129/129 132/132/132
f 128/128/128 133/133/133 134/134/134
f 131/131/131 135/135/135 129/129/129
f 135/135/135 132/132/132 129/129/129
f 35/35/35 136/136/136 137/137/137
f 138/138/138 139/139/139 140/140/140
f 141/141/141 142/142/142 143/143/143
f 8/8/8 7/7/7 144/144/144
f 7/7/7 145/145/145 144/144/144
f 145/145/145 146/146/146 147/147/147
f 143/143/143 148/148/148 149/149/149
f 7/7/7 146/146/146 145/145/145
f 146/146/146 7/7/7 150/150/150
f 151/151/151 152/152/152 147/147/147
f 146/146/146 151/151/151 147/147/147
f 150/150/150 151/151/151 146/146/146
f 153/153/153 152/152/152 151/151/151
f 153/153/153 154/154/154 152/152/152
f 150/150/150 155/155/155 151/151/151
f 7/7/7 155/155/155 150/150/150
f 9/9/9 155/155/155 7/7/7
f 86/86/86 156/156/156 87/87/87
f 155/155/155 157/157/157 151/151/151
f 151/151/151 157/157/157 153/153/153
f 158/158/158 159/159/159 160/160/160
f 161/161/161 162/162/162 163/163/163
f 164/164/164 110/110/110 165/165/165
f 115/115/115 113/113/113 110/110/110
f 115/115/115 110/110/110 164/164/164
f 165/165/165 110/110/110 112/112/112
f 110/110/110 113/113/113 111/111/111
f 166/166/166 115/115/115 167/167/167
f 115/115/115 166/166/166 116/116/116
f 164/164/164 167/167/167 115/115/115
f 10/10/10 166/166/166 167/167/167
f 167/167/167 164/164/164 168/168/168
f 112/112/112 169/169/169 165/165/165
f 166/166/166 12/12/12 116/116/116
f 170/170/170 167/167/167 168/168/168
f 171/171/171 172/172/172 173/173/173
f 174/174/174 171/171/171 175/175/175
f 166/166/166 10/10/10 12/12/12
f 176/176/176 168/168/168 177/177/177
f 10/10/10 167/167/167 170/170/170
f 171/171/171 168/168/168 176/176/176
f 171/171/171 173/173/173 168/168/168
f 178/178/178 174/174/174 175/175/175
f 174/174/174 172/172/172 171/171/171
f 174/174/174 178/178/178 179/179/179
f 171/171/171 176/176/176 175/175/175
f 180/180/180 174/174/174 179/179/179
f 173/173/173 170/170/170 168/168/168
f 19/19/19 170/170/170 173/173/173
f 175/175/175 176/176/176 181/181/181
f 19/19/19 21/21/21 170/170/170
f 182/182/182 19/19/19 173/173/173
f 183/183/183 173/173/173 172/172/172
f 21/21/21 10/10/10 170/170/170
f 173/173/173 183/183/183 182/182/182
f 184/184/184 182/182/182 183/183/183
f 182/182/182 22/22/22 19/19/19
f 123/123/123 185/185/185 124/124/124
f 186/186/186 185/185/185 123/123/123
f 123/123/123 128/128/128 186/186/186
f 187/187/187 188/188/188 189/189/189
f 128/128/128 134/134/134 186/186/186
f 190/190/190 188/188/188 187/187/187
f 191/191/191 190/190/190 187/187/187
f 192/192/192 190/190/190 191/191/191
f 35/35/35 34/34/34 136/136/136
f 193/193/193 194/194/194 191/191/191
f 194/194/194 192/192/192 191/191/191
f 195/195/195 196/196/196 193/193/193
f 197/197/197 196/196/196 195/195/195
f 196/196/196 194/194/194 193/193/193
f 44/44/44 56/56/56 197/197/197
f 194/194/194 198/198/198 192/192/192
f 56/56/56 196/196/196 197/197/197
f 199/199/199 190/190/190 192/192/192
f 196/196/196 200/200/200 194/194/194
f 200/200/200 201/201/201 194/194/194
f 201/201/201 198/198/198 194/194/194
f 198/198/198 199/199/199 192/192/192
f 56/56/56 200/200/200 196/196/196
f 138/138/138 140/140/140 202/202/202
f 202/202/202 140/140/140 142/142/142
f 203/203/203 139/139/139 138/138/138
f 202/202/202 142/142/142 141/141/141
f 204/204/204 199/199/199 198/198/198
f 201/201/201 204/204/204 198/198/198
f 205/205/205 199/199/199 204/204/204
f 149/149/149 141/141/141 143/143/143
f 204/204/204 206/206/206 207/207/207
f 208/208/208 149/149/149 148/148/148
f 206/206/206 209/209/209 207/207/207
f 210/210/210 211/211/211 148/148/148
f 212/212/212 158/158/158 213/213/213
f 214/214/214 215/215/215 158/158/158
f 216/216/216 217/217/217 218/218/218
f 84/84/84 219/219/219 220/220/220
f 85/85/85 84/84/84 220/220/220
f 82/82/82 85/85/85 221/221/221
f 221/221/221 85/85/85 220/220/220
f 220/220/220 222/222/222 223/223/223
f 221/221/221 224/224/224 82/82/82
f 216/216/216 225/225/225 226/226/226
f 217/217/217 216/216/216 226/226/226
f 224/224/224 221/221/221 227/227/227
f 221/221/221 220/220/220 228/228/228
f 220/220/220 223/223/223 228/228/228
f 227/227/227 221/221/221 228/228/228
f 229/229/229 230/230/230 231/231/231
f 230/230/230 232/232/232 231/231/231
f 214/214/214 158/158/158 160/160/160
f 233/233/233 234/234/234 235/235/235
f 236/236/236 86/86/86 82/82/82
f 225/225/225 227/227/227 226/226/226
f 228/228/228 223/223/223 230/230/230
f 223/223/223 232/232/232 230/230/230
f 226/226/226 230/230/230 217/217/217
f 227/227/227 228/228/228 226/226/226
f 217/217/217 230/230/230 229/229/229
f 226/226/226 228/228/228 230/230/230
f 227/227/227 237/237/237 224/224/224
f 227/227/227 225/225/225 237/237/237
f 236/236/236 82/82/82 224/224/224
f 86/86/86 238/238/238 156/156/156
f 237/237/237 236/236/236 224/224/224
f 238/238/238 86/86/86 236/236/236
f 238/238/238 236/236/236 237/237/237
f 239/239/239 234/234/234 233/233/233
f 238/238/238 237/237/237 156/156/156
f 162/162/162 237/237/237 240/240/240
f 156/156/156 237/237/237 161/161/161
f 237/237/237 162/162/162 161/161/161
f 241/241/241 172/172/172 174/174/174
f 174/174/174 180/180/180 241/241/241
f 172/172/172 242/242/242 183/183/183
f 172/172/172 241/241/241 242/242/242
f 242/242/242 241/241/241 243/243/243
f 243/243/243 241/241/241 180/180/180
f 244/244/244 243/243/243 180/180/180
f 182/182/182 184/184/184 22/22/22
f 245/245/245 242/242/242 243/243/243
f 244/244/244 246/246/246 243/243/243
f 245/245/245 183/183/183 242/242/242
f 247/247/247 184/184/184 183/183/183
f 245/245/245 247/247/247 183/183/183
f 184/184/184 247/247/247 88/88/88
f 88/88/88 22/22/22 184/184/184
f 248/248/248 247/247/247 245/245/245
f 246/246/246 245/245/245 243/243/243
f 249/249/249 250/250/250 251/251/251
f 94/94/94 252/252/252 249/249/249
f 94/94/94 253/253/253 254/254/254
f 255/255/255 256/256/256 94/94/94
f 251/251/251 257/257/257 258/258/258
f 259/259/259 258/258/258 260/260/260
f 258/258/258 261/261/261 251/251/251
f 259/259/259 261/261/261 258/258/258
f 262/262/262 249/249/249 251/251/251
f 262/262/262 251/251/251 263/263/263
f 263/263/263 251/251/251 261/261/261
f 262/262/262 94/94/94 249/249/249
f 261/261/261 259/259/259 264/264/264
f 265/265/265 263/263/263 261/261/261
f 262/262/262 97/97/97 94/94/94
f 266/266/266 97/97/97 262/262/262
f 267/267/267 262/262/262 263/263/263
f 267/267/267 266/266/266 262/262/262
f 265/265/265 267/267/267 263/263/263
f 268/268/268 267/267/267 265/265/265
f 265/265/265 261/261/261 264/264/264
f 266/266/266 101/101/101 97/97/97
f 269/269/269 266/266/266 267/267/267
f 268/268/268 269/269/269 267/267/267
f 270/270/270 265/265/265 264/264/264
f 101/101/101 266/266/266 102/102/102
f 265/265/265 271/271/271 268/268/268
f 269/269/269 102/102/102 266/266/266
f 272/272/272 269/269/269 268/268/268
f 270/270/270 271/271/271 265/265/265
f 270/270/270 264/264/264 273/273/273
f 271/271/271 272/272/272 268/268/268
f 269/269/269 272/272/272 102/102/102
f 274/274/274 271/271/271 270/270/270
f 270/270/270 275/275/275 274/274/274
f 271/271/271 276/276/276 272/272/272
f 272/272/272 277/277/277 102/102/102
f 274/274/274 276/276/276 271/271/271
f 272/272/272 276/276/276 277/277/277
f 102/102/102 278/278/278 105/105/105
f 274/274/274 279/279/279 276/276/276
f 277/277/277 278/278/278 102/102/102
f 275/275/275 279/279/279 274/274/274
f 277/277/277 276/276/276 280/280/280
f 281/281/281 282/282/282 283/283/283
f 275/275/275 284/284/284 279/279/279
f 279/279/279 285/285/285 276/276/276
f 283/283/283 84/84/84 109/109/109
f 286/286/286 287/287/287 282/282/282
f 288/288/288 289/289/289 287/287/287
f 219/219/219 84/84/84 283/283/283
f 283/283/283 282/282/282 219/219/219
f 289/289/289 232/232/232 287/287/287
f 282/282/282 287/287/287 222/222/222
f 220/220/220 219/219/219 282/282/282
f 222/222/222 287/287/287 232/232/232
f 220/220/220 282/282/282 222/222/222
f 289/289/289 290/290/290 232/232/232
f 232/232/232 290/290/290 231/231/231
f 223/223/223 222/222/222 232/232/232
f 291/291/291 292/292/292 293/293/293
f 294/294/294 295/295/295 296/296/296
f 297/297/297 298/298/298 299/299/299
f 300/300/300 297/297/297 299/299/299
f 301/301/301 297/297/297 300/300/300
f 302/302/302 298/298/298 297/297/297
f 301/301/301 303/303/303 297/297/297
f 303/303/303 302/302/302 297/297/297
f 304/304/304 301/301/301 300/300/300
f 305/305/305 306/306/306 307/307/307
f 305/305/305 307/307/307 308/308/308
f 309/309/309 310/310/310 311/311/311
f 312/312/312 313/313/313 314/314/314
f 312/312/312 315/315/315 313/313/313
f 315/315/315 312/312/312 316/316/316
f 317/317/317 318/318/318 319/319/319
f 320/320/320 312/312/312 314/314/314
f 312/312/312 321/321/321 316/316/316
f 322/322/322 321/321/321 312/312/312
f 321/321/321 323/323/323 316/316/316
f 320/320/320 322/322/322 312/312/312
f 321/321/321 322/322/322 323/323/323
f 324/324/324 178/178/178 325/325/325
f 178/178/178 326/326/326 325/325/325
f 179/179/179 178/178/178 324/324/324
f 327/327/327 328/328/328 291/291/291
f 291/291/291 293/293/293 327/327/327
f 178/178/178 175/175/175 326/326/326
f 324/324/324 329/329/329 330/330/330
f 326/326/326 328/328/328 327/327/327
f 325/325/325 329/329/329 324/324/324
f 327/327/327 331/331/331 326/326/326
f 326/326/326 175/175/175 181/181/181
f 326/326/326 331/331/331 325/325/325
f 332/332/332 329/329/329 325/325/325
f 331/331/331 327/327/327 293/293/293
f 325/325/325 331/331/331 332/332/332
f 181/181/181 333/333/333 326/326/326
f 293/293/293 292/292/292 334/334/334
f 335/335/335 336/336/336 337/337/337
f 338/338/338 329/329/329 332/332/332
f 339/339/339 331/331/331 293/293/293
f 331/331/331 340/340/340 332/332/332
f 338/338/338 332/332/332 340/340/340
f 331/331/331 339/339/339 341/341/341
f 342/342/342 333/333/333 181/181/181
f 331/331/331 341/341/341 340/340/340
f 293/293/293 334/334/334 339/339/339
f 343/343/343 337/337/337 336/336/336
f 340/340/340 344/344/344 338/338/338
f 344/344/344 345/345/345 338/338/338
f 346/346/346 347/347/347 348/348/348
f 349/349/349 347/347/347 350/350/350
f 337/337/337 351/351/351 295/295/295
f 351/351/351 337/337/337 343/343/343
f 352/352/352 353/353/353 354/354/354
f 351/351/351 355/355/355 295/295/295
f 356/356/356 347/347/347 346/346/346
f 357/357/357 352/352/352 349/349/349
f 353/353/353 352/352/352 357/357/357
f 356/356/356 350/350/350 347/347/347
f 357/357/357 349/349/349 350/350/350
f 358/358/358 359/359/359 351/351/351
f 360/360/360 361/361/361 344/344/344
f 351/351/351 359/359/359 355/355/355
f 344/344/344 362/362/362 360/360/360
f 356/356/356 346/346/346 363/363/363
f 364/364/364 188/188/188 190/190/190
f 357/357/357 350/350/350 365/365/365
f 366/366/366 367/367/367 308/308/308
f 350/350/350 368/368/368 369/369/369
f 370/370/370 371/371/371 360/360/360
f 350/350/350 369/369/369 365/365/365
f 357/357/357 365/365/365 353/353/353
f 307/307/307 366/366/366 308/308/308
f 308/308/308 372/372/372 305/305/305
f 373/373/373 308/308/308 367/367/367
f 373/373/373 372/372/372 308/308/308
f 190/190/190 374/374/374 364/364/364
f 353/353/353 365/365/365 375/375/375
f 376/376/376 377/377/377 378/378/378
f 374/374/374 379/379/379 364/364/364
f 380/380/380 381/381/381 382/382/382
f 379/379/379 380/380/380 383/383/383
f 365/365/365 384/384/384 375/375/375
f 199/199/199 374/374/374 190/190/190
f 385/385/385 379/379/379 374/374/374
f 384/384/384 365/365/365 386/386/386
f 387/387/387 388/388/388 389/389/389
f 379/379/379 385/385/385 380/380/380
f 199/199/199 385/385/385 374/374/374
f 390/390/390 391/391/391 392/392/392
f 393/393/393 384/384/384 386/386/386
f 309/309/309 394/394/394 395/395/395
f 199/199/199 205/205/205 385/385/385
f 394/394/394 309/309/309 311/311/311
f 384/384/384 393/393/393 396/396/396
f 394/394/394 311/311/311 397/397/397
f 396/396/396 398/398/398 384/384/384
f 399/399/399 394/394/394 400/400/400
f 401/401/401 318/318/318 317/317/317
f 393/393/393 402/402/402 396/396/396
f 403/403/403 318/318/318 401/401/401
f 404/404/404 405/405/405 406/406/406
f 407/407/407 393/393/393 406/406/406
f 408/408/408 396/396/396 409/409/409
f 410/410/410 405/405/405 404/404/404
f 204/204/204 207/207/207 205/205/205
f 407/407/407 406/406/406 405/405/405
f 407/407/407 402/402/402 393/393/393
f 404/404/404 411/411/411 410/410/410
f 412/412/412 396/396/396 402/402/402
f 396/396/396 412/412/412 409/409/409
f 407/407/407 413/413/413 402/402/402
f 402/402/402 413/413/413 412/412/412
f 407/407/407 405/405/405 413/413/413
f 412/412/412 414/414/414 409/409/409
f 405/405/405 415/415/415 413/413/413
f 415/415/415 405/405/405 410/410/410
f 413/413/413 416/416/416 412/412/412
f 412/412/412 416/416/416 414/414/414
f 417/417/417 319/319/319 318/318/318
f 418/418/418 417/417/417 318/318/318
f 413/413/413 415/415/415 416/416/416
f 419/419/419 420/420/420 421/421/421
f 422/422/422 419/419/419 421/421/421
f 423/423/423 424/424/424 425/425/425
f 426/426/426 427/427/427 428/428/428
f 429/429/429 218/218/218 217/217/217
f 430/430/430 218/218/218 429/429/429
f 431/431/431 420/420/420 428/428/428
f 432/432/432 421/421/421 420/420/420
f 433/433/433 434/434/434 430/430/430
f 431/431/431 432/432/432 420/420/420
f 430/430/430 428/428/428 433/433/433
f 430/430/430 431/431/431 428/428/428
f 434/434/434 433/433/433 427/427/427
f 427/427/427 433/433/433 428/428/428
f 432/432/432 435/435/435 421/421/421
f 430/430/430 429/429/429 431/431/431
f 229/229/229 429/429/429 217/217/217
f 231/231/231 436/436/436 435/435/435
f 429/429/429 432/432/432 431/431/431
f 229/229/229 231/231/231 435/435/435
f 229/229/229 432/432/432 429/429/429
f 229/229/229 435/435/435 432/432/432
f 437/437/437 438/438/438 439/439/439
f 440/440/440 438/438/438 437/437/437
f 441/441/441 442/442/442 443/443/443
f 441/441/441 444/444/444 442/442/442
f 439/439/439 445/445/445 446/446/446
f 447/447/447 448/448/448 449/449/449
f 443/443/443 450/450/450 448/448/448
f 451/451/451 452/452/452 440/440/440
f 440/440/440 452/452/452 438/438/438
f 439/439/439 438/438/438 445/445/445
f 448/448/448 450/450/450 449/449/449
f 180/180/180 179/179/179 330/330/330
f 330/330/330 179/179/179 324/324/324
f 453/453/453 454/454/454 455/455/455
f 456/456/456 443/443/443 442/442/442
f 445/445/445 438/438/438 457/457/457
f 451/451/451 458/458/458 452/452/452
f 450/450/450 443/443/443 456/456/456
f 452/452/452 459/459/459 438/438/438
f 447/447/447 449/449/449 460/460/460
f 457/457/457 438/438/438 459/459/459
f 461/461/461 462/462/462 463/463/463
f 445/445/445 464/464/464 446/446/446
f 330/330/330 329/329/329 465/465/465
f 458/458/458 466/466/466 452/452/452
f 244/244/244 180/180/180 330/330/330
f 465/465/465 329/329/329 338/338/338
f 452/452/452 466/466/466 459/459/459
f 330/330/330 467/467/467 244/244/244
f 467/467/467 330/330/330 465/465/465
f 457/457/457 459/459/459 468/468/468
f 457/457/457 469/469/469 445/445/445
f 445/445/445 469/469/469 464/464/464
f 470/470/470 454/454/454 453/453/453
f 457/457/457 468/468/468 469/469/469
f 469/469/469 471/471/471 464/464/464
f 468/468/468 459/459/459 472/472/472
f 473/473/473 461/461/461 463/463/463
f 474/474/474 475/475/475 476/476/476
f 244/244/244 477/477/477 478/478/478
f 467/467/467 477/477/477 244/244/244
f 479/479/479 472/472/472 459/459/459
f 471/471/471 469/469/469 480/480/480
f 258/258/258 481/481/481 260/260/260
f 482/482/482 475/475/475 474/474/474
f 344/344/344 361/361/361 479/479/479
f 483/483/483 484/484/484 485/485/485
f 486/486/486 483/483/483 487/487/487
f 486/486/486 484/484/484 483/483/483
f 488/488/488 475/475/475 482/482/482
f 489/489/489 482/482/482 490/490/490
f 486/486/486 491/491/491 484/484/484
f 492/492/492 259/259/259 260/260/260
f 488/488/488 482/482/482 493/493/493
f 492/492/492 264/264/264 259/259/259
f 494/494/494 482/482/482 495/495/495
f 493/493/493 482/482/482 494/494/494
f 496/496/496 491/491/491 486/486/486
f 273/273/273 264/264/264 492/492/492
f 497/497/497 493/493/493 494/494/494
f 497/497/497 498/498/498 493/493/493
f 496/496/496 499/499/499 500/500/500
f 500/500/500 499/499/499 501/501/501
f 275/275/275 270/270/270 273/273/273
f 502/502/502 497/497/497 503/503/503
f 501/501/501 504/504/504 505/505/505
f 506/506/506 275/275/275 273/273/273
f 507/507/507 508/508/508 501/501/501
f 509/509/509 510/510/510 511/511/511
f 506/506/506 512/512/512 275/275/275
f 513/513/513 514/514/514 515/515/515
f 514/514/514 516/516/516 517/517/517
f 518/518/518 514/514/514 517/517/517
f 516/516/516 519/519/519 517/517/517
f 516/516/516 520/520/520 519/519/519
f 284/284/284 275/275/275 512/512/512
f 521/521/521 522/522/522 523/523/523
f 521/521/521 524/524/524 522/522/522
f 524/524/524 525/525/525 522/522/522
f 526/526/526 527/527/527 528/528/528
f 289/289/289 529/529/529 520/520/520
f 530/530/530 531/531/531 532/532/532
f 533/533/533 534/534/534 535/535/535
f 536/536/536 537/537/537 530/530/530
f 526/526/526 521/521/521 527/527/527
f 520/520/520 290/290/290 289/289/289
f 535/535/535 534/534/534 538/538/538
f 290/290/290 520/520/520 436/436/436
f 539/539/539 540/540/540 541/541/541
f 540/540/540 539/539/539 536/536/536
f 521/521/521 526/526/526 542/542/542
f 436/436/436 520/520/520 543/543/543
f 526/526/526 544/544/544 542/542/542
f 524/524/524 545/545/545 546/546/546
f 521/521/521 547/547/547 524/524/524
f 521/521/521 542/542/542 547/547/547
f 421/421/421 543/543/543 422/422/422
f 548/548/548 530/530/530 532/532/532
f 421/421/421 436/436/436 543/543/543
f 549/549/549 550/550/550 544/544/544
f 536/536/536 530/530/530 548/548/548
f 551/551/551 552/552/552 553/553/553
f 534/534/534 554/554/554 555/555/555
f 436/436/436 231/231/231 290/290/290
f 542/542/542 544/544/544 556/556/556
f 556/556/556 547/547/547 542/542/542
f 435/435/435 436/436/436 421/421/421
f 540/540/540 557/557/557 541/541/541
f 550/550/550 558/558/558 544/544/544
f 544/544/544 558/558/558 559/559/559
f 557/557/557 540/540/540 560/560/560
f 556/556/556 544/544/544 559/559/559
f 552/552/552 561/561/561 553/553/553
f 552/552/552 562/562/562 561/561/561
f 536/536/536 563/563/563 540/540/540
f 536/536/536 548/548/548 563/563/563
f 564/564/564 565/565/565 562/562/562
f 562/562/562 566/566/566 561/561/561
f 473/473/473 463/463/463 567/567/567
f 568/568/568 569/569/569 570/570/570
f 571/571/571 487/487/487 572/572/572
f 486/486/486 487/487/487 571/571/571
f 573/573/573 571/571/571 572/572/572
f 572/572/572 574/574/574 573/573/573
f 575/575/575 486/486/486 571/571/571
f 573/573/573 575/575/575 571/571/571
f 496/496/496 486/486/486 499/499/499
f 499/499/499 486/486/486 575/575/575
f 576/576/576 575/575/575 573/573/573
f 577/577/577 576/576/576 573/573/573
f 576/576/576 578/578/578 575/575/575
f 578/578/578 499/499/499 575/575/575
f 576/576/576 577/577/577 579/579/579
f 499/499/499 578/578/578 501/501/501
f 576/576/576 580/580/580 578/578/578
f 576/576/576 579/579/579 580/580/580
f 580/580/580 507/507/507 578/578/578
f 507/507/507 501/501/501 578/578/578
f 507/507/507 580/580/580 581/581/581
f 582/582/582 583/583/583 584/584/584
f 585/585/585 532/532/532 531/531/531
f 524/524/524 546/546/546 525/525/525
f 586/586/586 587/587/587 588/588/588
f 587/587/587 589/589/589 590/590/590
f 589/589/589 591/591/591 590/590/590
f 592/592/592 593/593/593 594/594/594
f 595/595/595 596/596/596 597/597/597
f 597/597/597 598/598/598 589/589/589
f 590/590/590 599/599/599 587/587/587
f 589/589/589 598/598/598 591/591/591
f 600/600/600 596/596/596 595/595/595
f 595/595/595 597/597/597 589/589/589
f 600/600/600 595/595/595 601/601/601
f 602/602/602 603/603/603 604/604/604
f 602/602/602 605/605/605 603/603/603
f 605/605/605 606/606/606 607/607/607
f 608/608/608 601/601/601 595/595/595
f 609/609/609 610/610/610 611/611/611
f 592/592/592 612/612/612 613/613/613
f 614/614/614 592/592/592 615/615/615
f 616/616/616 617/617/617 618/618/618
f 619/619/619 620/620/620 617/617/617
f 619/619/619 617/617/617 616/616/616
f 621/621/621 622/622/622 623/623/623
f 624/624/624 625/625/625 626/626/626
f 627/627/627 610/610/610 628/628/628
f 629/629/629 630/630/630 388/388/388
f 631/631/631 625/625/625 624/624/624
f 620/620/620 632/632/632 633/633/633
f 611/611/611 610/610/610 634/634/634
f 610/610/610 627/627/627 634/634/634
f 619/619/619 632/632/632 620/620/620
f 635/635/635 616/616/616 618/618/618
f 615/615/615 592/592/592 636/636/636
f 387/387/387 629/629/629 388/388/388
f 637/637/637 638/638/638 602/602/602
f 639/639/639 627/627/627 628/628/628
f 623/623/623 640/640/640 621/621/621
f 613/613/613 636/636/636 592/592/592
f 640/640/640 641/641/641 621/621/621
f 642/642/642 643/643/643 644/644/644
f 645/645/645 644/644/644 643/643/643
f 644/644/644 646/646/646 642/642/642
f 645/645/645 643/643/643 647/647/647
f 647/647/647 643/643/643 648/648/648
f 648/648/648 643/643/643 649/649/649
f 611/611/611 634/634/634 650/650/650
f 648/648/648 649/649/649 651/651/651
f 649/649/649 652/652/652 651/651/651
f 653/653/653 652/652/652 649/649/649
f 653/653/653 654/654/654 652/652/652
f 652/652/652 655/655/655 651/651/651
f 480/480/480 469/469/469 468/468/468
f 472/472/472 479/479/479 656/656/656
f 468/468/468 657/657/657 480/480/480
f 657/657/657 468/468/468 472/472/472
f 656/656/656 658/658/658 659/659/659
f 479/479/479 361/361/361 656/656/656
f 472/472/472 660/660/660 657/657/657
f 472/472/472 656/656/656 660/660/660
f 661/661/661 662/662/662 480/480/480
f 480/480/480 662/662/662 663/663/663
f 657/657/657 660/660/660 661/661/661
f 656/656/656 659/659/659 660/660/660
f 664/664/664 665/665/665 603/603/603
f 666/666/666 667/667/667 668/668/668
f 659/659/659 669/669/669 660/660/660
f 670/670/670 661/661/661 660/660/660
f 603/603/603 671/671/671 664/664/664
f 669/669/669 670/670/670 660/660/660
f 672/672/672 671/671/671 603/603/603
f 669/669/669 659/659/659 673/673/673
f 661/661/661 670/670/670 674/674/674
f 672/672/672 607/607/607 675/675/675
f 669/669/669 673/673/673 676/676/676
f 673/673/673 588/588/588 676/676/676
f 677/677/677 669/669/669 676/676/676
f 669/669/669 677/677/677 670/670/670
f 588/588/588 673/673/673 586/586/586
f 588/588/588 587/587/587 599/599/599
f 672/672/672 605/605/605 607/607/607
f 678/678/678 679/679/679 680/680/680
f 681/681/681 682/682/682 683/683/683
f 684/684/684 685/685/685 686/686/686
f 603/603/603 605/605/605 672/672/672
f 687/687/687 682/682/682 688/688/688
f 689/689/689 687/687/687 688/688/688
f 679/679/679 690/690/690 680/680/680
f 691/691/691 692/692/692 689/689/689
f 692/692/692 691/691/691 609/609/609
f 692/692/692 609/609/609 611/611/611
f 687/687/687 689/689/689 692/692/692
f 693/693/693 694/694/694 685/685/685
f 638/638/638 605/605/605 602/602/602
f 650/650/650 692/692/692 611/611/611
f 682/682/682 695/695/695 696/696/696
f 638/638/638 697/697/697 605/605/605
f 650/650/650 698/698/698 692/692/692
f 687/687/687 699/699/699 682/682/682
f 700/700/700 694/694/694 693/693/693
f 692/692/692 698/698/698 687/687/687
f 701/701/701 700/700/700 693/693/693
f 638/638/638 702/702/702 697/697/697
f 699/699/699 695/695/695 682/682/682
f 699/699/699 687/687/687 698/698/698
f 652/652/652 654/654/654 655/655/655
f 654/654/654 703/703/703 655/655/655
f 704/704/704 511/511/511 638/638/638
f 705/705/705 703/703/703 654/654/654
f 705/705/705 706/706/706 703/703/703
f 707/707/707 694/694/694 700/700/700
f 708/708/708 709/709/709 710/710/710
f 654/654/654 711/711/711 705/705/705
f 709/709/709 708/708/708 706/706/706
f 712/712/712 713/713/713 714/714/714
f 511/511/511 715/715/715 638/638/638
f 716/716/716 706/706/706 705/705/705
f 709/709/709 706/706/706 716/716/716
f 717/717/717 715/715/715 511/511/511
f 718/718/718 719/719/719 712/712/712
f 720/720/720 581/581/581 580/580/580
f 511/511/511 510/510/510 717/717/717
f 709/709/709 716/716/716 721/721/721
f 722/722/722 723/723/723 700/700/700
f 523/523/523 724/724/724 725/725/725
f 726/726/726 727/727/727 722/722/722
f 523/523/523 522/522/522 724/724/724
f 728/728/728 716/716/716 729/729/729
f 528/528/528 716/716/716 728/728/728
f 716/716/716 528/528/528 721/721/721
f 721/721/721 730/730/730 523/523/523
f 721/721/721 528/528/528 527/527/527
f 521/521/521 523/523/523 527/527/527
f 731/731/731 732/732/732 574/574/574
f 577/577/577 574/574/574 732/732/732
f 577/577/577 573/573/573 574/574/574
f 733/733/733 732/732/732 731/731/731
f 732/732/732 733/733/733 734/734/734
f 577/577/577 732/732/732 579/579/579
f 734/734/734 579/579/579 732/732/732
f 734/734/734 720/720/720 579/579/579
f 579/579/579 720/720/720 580/580/580
